<?xml version="1.0" encoding="utf-8"?>
<!-- Generator: Adobe Illustrator 25.4.1, SVG Export Plug-In . SVG Version: 6.00 Build 0)  -->
<svg version="1.1" id="Layer_1" xmlns="http://www.w3.org/2000/svg" xmlns:xlink="http://www.w3.org/1999/xlink" x="0px" y="0px"
	 viewBox="0 0 1153.4 710.6" style="enable-background:new 0 0 1153.4 710.6;" xml:space="preserve">
<style type="text/css">
	.st0{fill:#231F20;stroke:#231F20;stroke-width:0.9996;stroke-miterlimit:9.9959;}
	.st1{fill:none;stroke:#231F20;stroke-width:0.9996;stroke-miterlimit:9.9959;}
	.st2{fill:none;stroke:#F91616;stroke-width:0.9996;stroke-miterlimit:9.9959;}
	.st3{fill:none;stroke:#CF2027;stroke-width:0.5669;stroke-linecap:round;stroke-linejoin:round;stroke-miterlimit:11.3386;}
	.st4{fill:none;stroke:#EF3D25;stroke-width:0.5669;stroke-linecap:round;stroke-linejoin:round;stroke-miterlimit:11.3386;}
	.st5{fill:none;stroke:#EF4423;stroke-width:0.5669;stroke-linecap:round;stroke-linejoin:round;stroke-miterlimit:11.3386;}
</style>
<g>
	<rect x="490.9" y="22.6" class="st0" width="62.3" height="62.3"/>
	<rect x="428.5" y="22.6" class="st1" width="62.3" height="62.3"/>
	<rect x="366.2" y="22.6" class="st0" width="62.3" height="62.3"/>
	<rect x="303.8" y="22.6" class="st1" width="62.3" height="62.3"/>
	<rect x="241.5" y="22.6" class="st0" width="62.3" height="62.3"/>
	<rect x="179.2" y="22.6" class="st1" width="62.3" height="62.3"/>
	<rect x="116.8" y="22.6" class="st0" width="62.3" height="62.3"/>
	<rect x="54.5" y="22.6" class="st1" width="62.3" height="62.3"/>
	<rect x="54.5" y="84.9" class="st0" width="62.3" height="62.3"/>
	<rect x="179.2" y="84.9" class="st0" width="62.3" height="62.3"/>
	<rect x="303.8" y="84.9" class="st0" width="62.3" height="62.3"/>
	<rect x="428.5" y="84.9" class="st0" width="62.3" height="62.3"/>
	<rect x="490.8" y="84.9" class="st1" width="62.3" height="62.3"/>
	<rect x="490.9" y="147.2" class="st0" width="62.3" height="62.3"/>
	<rect x="366.2" y="147.2" class="st0" width="62.3" height="62.3"/>
	<rect x="241.5" y="147.2" class="st0" width="62.3" height="62.3"/>
	<rect x="116.8" y="147.2" class="st0" width="62.3" height="62.3"/>
	<rect x="54.5" y="147.2" class="st1" width="62.3" height="62.3"/>
	<rect x="54.5" y="209.6" class="st0" width="62.3" height="62.3"/>
	<rect x="179.2" y="209.6" class="st0" width="62.3" height="62.3"/>
	<rect x="303.8" y="209.6" class="st0" width="62.3" height="62.3"/>
	<rect x="428.5" y="209.6" class="st0" width="62.3" height="62.3"/>
	<rect x="490.8" y="209.6" class="st1" width="62.3" height="62.3"/>
	<rect x="490.9" y="271.7" class="st0" width="62.3" height="62.3"/>
	<rect x="366.2" y="271.7" class="st0" width="62.3" height="62.3"/>
	<rect x="241.5" y="271.7" class="st0" width="62.3" height="62.3"/>
	<rect x="116.8" y="271.7" class="st0" width="62.3" height="62.3"/>
	<rect x="54.5" y="271.7" class="st1" width="62.3" height="62.3"/>
	<rect x="54.5" y="334.1" class="st0" width="62.3" height="62.3"/>
	<rect x="179.2" y="334.1" class="st0" width="62.3" height="62.3"/>
	<rect x="303.8" y="334.1" class="st0" width="62.3" height="62.3"/>
	<rect x="428.5" y="334.1" class="st0" width="62.3" height="62.3"/>
	<rect x="490.8" y="334.1" class="st1" width="62.3" height="62.3"/>
	<rect x="490.9" y="396.4" class="st0" width="62.3" height="62.3"/>
	<rect x="366.2" y="396.4" class="st0" width="62.3" height="62.3"/>
	<rect x="241.5" y="396.4" class="st0" width="62.3" height="62.3"/>
	<rect x="116.8" y="396.4" class="st0" width="62.3" height="62.3"/>
	<rect x="54.5" y="396.4" class="st1" width="62.3" height="62.3"/>
	<rect x="54.5" y="458.8" class="st0" width="62.3" height="62.3"/>
	<rect x="116.8" y="458.8" class="st1" width="62.3" height="62.3"/>
	<rect x="179.2" y="458.8" class="st0" width="62.3" height="62.3"/>
	<rect x="241.5" y="458.8" class="st1" width="62.3" height="62.3"/>
	<rect x="303.8" y="458.8" class="st0" width="62.3" height="62.3"/>
	<rect x="366.2" y="458.8" class="st1" width="62.3" height="62.3"/>
	<rect x="428.5" y="458.8" class="st0" width="62.3" height="62.3"/>
	<rect x="490.8" y="458.8" class="st1" width="62.3" height="62.3"/>
	<path d="M76.6,537.8c-0.2,0-0.5,0-0.7,0.1c-0.2,0-0.3,0.1-0.4,0.2c-0.1,0.1-0.2,0.3-0.3,0.5c-0.1,0.3-0.3,0.6-0.4,0.9
		c-0.2,0.3-0.4,0.7-0.6,1c-0.2,0.3-0.4,0.7-0.6,1c-0.1,0.2-0.2,0.4-0.3,0.7c0,0.2-0.1,0.4-0.2,0.6c-0.1,0.1-0.2,0.1-0.3,0.2
		l-0.7,0.1l-0.8,0.1h-0.7h-0.3c-0.1,0-0.2-0.1-0.2-0.1c0-0.1-0.1-0.2-0.1-0.3c0-0.2,0-0.3,0.1-0.5c0.1-0.1,0.2-0.1,0.3-0.2
		c0.3-0.1,0.6-0.2,0.9-0.4c0.3-0.2,0.6-0.6,0.7-0.9c0.1-0.3,0.3-0.6,0.5-0.9l1.1-1.7c0.4-0.7,0.9-1.4,1.4-2.2c0.5-0.8,1-1.6,1.4-2.3
		c0.4-0.8,0.8-1.5,1-2.1c0.2-0.5,0.4-1,0.4-1.5c0-0.1,0-0.1,0-0.2c0-0.1-0.1-0.2-0.1-0.3c0-0.1-0.1-0.2-0.1-0.3
		c0-0.1-0.1-0.1-0.1-0.2c0-0.1,0.1-0.2,0.2-0.3c0.1-0.1,0.3-0.2,0.4-0.3c0.2-0.1,0.3-0.2,0.5-0.2c0.1-0.1,0.3-0.1,0.4-0.1
		c0.2,0,0.4,0.2,0.5,0.3c0.2,0.2,0.4,0.5,0.6,0.7c0.7,1.2,1.4,2.5,2.1,3.8c0.7,1.4,1.7,2.9,2.8,4.5c0.7,1,1.3,1.9,1.8,2.5
		s0.9,1.1,1.1,1.4c0.3,0.3,0.5,0.5,0.6,0.7c0.1,0.1,0.2,0.2,0.2,0.2c0,0.2,0,0.3-0.2,0.4c-0.1,0.1-0.3,0.1-0.5,0.1
		c-0.1,0-0.3,0-0.5,0s-0.4,0-0.7-0.1l-0.6-0.1c-0.2,0-0.3,0-0.4-0.1c-0.2,0-0.3-0.1-0.4-0.3c-0.1-0.2-0.2-0.4-0.3-0.6
		c-0.1-0.1-0.2-0.4-0.4-0.8c-0.2-0.4-0.4-0.7-0.6-1.1c-0.2-0.4-0.4-0.7-0.6-1c-0.2-0.3-0.3-0.5-0.4-0.5c-0.3-0.1-0.7-0.2-1-0.2
		c-0.5-0.1-1-0.1-1.5-0.1l-1.6-0.1h-1.2L76.6,537.8z M80,532.8c-0.2-0.3-0.3-0.6-0.4-0.9c-0.1-0.2-0.2-0.3-0.3-0.3
		c-0.1,0-0.1,0-0.2,0.1c-0.1,0.1-0.1,0.2-0.1,0.3c0,0.1-0.1,0.2-0.1,0.3c0,0.1-0.1,0.2-0.1,0.3l-1.5,2.6c-0.2,0.4-0.4,0.7-0.5,0.8
		c-0.1,0.1-0.1,0.2-0.1,0.4c0,0.1,0.2,0.2,0.5,0.2h5.3L80,532.8z"/>
	<path d="M139.3,533c0-0.4,0-0.8-0.1-1.3c0-0.2-0.1-0.4-0.2-0.6c-0.1-0.1-0.2-0.2-0.3-0.2l-0.6-0.3c-0.1-0.1-0.2-0.2-0.2-0.3
		c0-0.1,0-0.1,0.1-0.2c0.1-0.1,0.3-0.2,0.4-0.3c0.4-0.2,0.8-0.4,1.1-0.6l2.2-1c0.1-0.1,0.2-0.1,0.4-0.1c0.2,0,0.5,0,0.7,0
		c1.1,0,2.2,0.1,3.3,0.5c0.8,0.3,1.3,1.1,1.2,1.9c0,0.4,0,0.8-0.1,1.1c-0.1,0.3-0.3,0.6-0.5,0.9c-0.3,0.3-0.7,0.6-1.1,0.9
		c-0.6,0.4-1.2,0.7-1.9,1c0.5,0.1,0.9,0.3,1.3,0.6c0.5,0.3,1,0.6,1.5,1c0.5,0.4,0.9,0.8,1.2,1.2c0.3,0.4,0.5,0.8,0.5,1.3
		c0,0.5-0.2,1-0.5,1.4c-0.4,0.4-0.8,0.8-1.3,1.1c-0.6,0.4-1.2,0.7-1.8,0.9c-0.6,0.3-1.3,0.5-1.8,0.6c-0.6,0.2-1.1,0.3-1.5,0.4
		c-0.3,0.1-0.5,0.1-0.8,0.1c-0.6,0-1.2,0-1.8-0.1c-0.3-0.1-0.4-0.2-0.4-0.4c0-0.2,0.1-0.3,0.3-0.4c0.2-0.1,0.3-0.3,0.4-0.6
		c0.1-0.3,0.1-0.7,0.2-1c0-0.5,0.1-1,0.2-1.5c0.1-0.5,0.1-1.2,0.1-1.8c0-0.6,0-1.3,0-1.9C139.3,534.3,139.3,533.5,139.3,533z
		 M140.9,540.4c0,0.2,0,0.4,0.1,0.6c0,0.1,0.1,0.2,0.2,0.2c0.1,0,0.2,0.1,0.3,0c0.4,0,0.9-0.1,1.3-0.1c0.5-0.1,1-0.2,1.5-0.4
		c0.5-0.2,0.9-0.5,1.3-0.8c0.3-0.3,0.5-0.7,0.5-1.1c0-0.4-0.2-0.7-0.4-0.9c-0.3-0.4-0.6-0.7-1-1c-0.8-0.6-1.6-1.1-2.6-1.4
		c-0.2,0.1-0.4,0.1-0.5,0.2c-0.1,0.1-0.3,0.2-0.4,0.2c-0.2,0.3-0.3,0.6-0.3,0.9c0,0.5-0.1,1.3-0.1,2.5
		C140.9,539.8,140.9,540.2,140.9,540.4z M141.5,534.2c0.1,0.1,0.2,0.1,0.4,0.1c0.3,0,0.6-0.2,0.9-0.3c0.4-0.2,0.8-0.5,1.1-0.9
		c0.4-0.3,0.7-0.7,0.9-1.1c0.2-0.3,0.4-0.7,0.4-1.1c0-0.2-0.1-0.5-0.2-0.7c-0.1-0.2-0.3-0.4-0.6-0.6c-0.3-0.2-0.6-0.3-0.9-0.4
		c-0.4-0.1-0.8-0.2-1.2-0.2c-0.3,0-0.6,0.1-0.9,0.2c-0.3,0.2-0.4,0.5-0.4,0.7v3.9C141.3,534,141.4,534.1,141.5,534.2L141.5,534.2z"
		/>
	<path d="M200.3,533.9c0.3-0.8,0.7-1.6,1.3-2.3c0.5-0.6,1.1-1.2,1.8-1.6c0.7-0.4,1.4-0.7,2.1-1c0.7-0.2,1.4-0.4,2.1-0.5
		c0.6-0.1,1.2-0.1,1.8-0.1c0.7,0,1.3,0.1,1.9,0.4c0.4,0.3,0.7,0.5,0.7,0.8c0,0.1-0.1,0.3-0.2,0.4c-0.1,0.2-0.3,0.3-0.4,0.4
		c-0.2,0.1-0.3,0.2-0.5,0.3c-0.1,0.1-0.3,0.1-0.4,0.1c-0.1,0-0.3-0.1-0.3-0.2l-0.4-0.4c-0.2-0.2-0.3-0.3-0.5-0.4
		c-0.2-0.1-0.5-0.2-0.8-0.2c-0.8,0-1.6,0.1-2.4,0.4c-0.6,0.2-1.2,0.6-1.8,1c-0.5,0.4-0.9,0.9-1.2,1.4c-0.5,0.9-0.9,1.9-1.1,3
		c-0.1,0.3-0.1,0.7-0.1,1c0,0.6,0.1,1.1,0.4,1.6c0.2,0.6,0.6,1.2,1,1.7c0.5,0.5,1,1,1.6,1.3c0.6,0.4,1.4,0.5,2.1,0.5
		c0.6,0,1.3-0.1,1.9-0.3c0.5-0.2,1-0.4,1.5-0.7c0.4-0.3,0.8-0.5,1.1-0.7c0.2-0.2,0.5-0.3,0.7-0.3c0.2,0,0.3,0,0.4,0.1
		c0.1,0.1,0.2,0.2,0.2,0.4c0,0.1-0.1,0.2-0.2,0.3c-0.2,0.2-0.3,0.4-0.5,0.5c-0.2,0.2-0.5,0.4-0.7,0.6c-0.3,0.2-0.6,0.4-0.9,0.5
		c-0.2,0.1-0.5,0.2-0.8,0.3c-0.3,0.1-0.7,0.2-1.1,0.2c-0.4,0.1-0.8,0.1-1.2,0.2s-0.8,0.1-1.2,0.1c-0.6,0-1.3-0.1-1.9-0.3
		c-2.6-0.7-4.4-3.1-4.3-5.8C199.8,535.9,199.9,534.9,200.3,533.9z"/>
	<path d="M266.4,543.3l-0.5-0.1l-1.6-0.2c-0.2,0-0.5-0.1-0.7-0.1c-0.1,0-0.2-0.2-0.2-0.3c0-0.1,0-0.2,0.1-0.3l0.3-0.3
		c0.1-0.1,0.2-0.3,0.3-0.4c0.1-0.2,0.2-0.5,0.2-0.8c0-1,0.1-2,0.1-3.1c0-1.1,0.1-2,0.1-2.9c0-0.4,0-0.8,0-1.2s-0.1-0.8-0.1-1.3
		s-0.1-0.8-0.2-1.2s-0.1-0.7-0.2-0.9c0-0.1-0.1-0.2-0.2-0.3l-0.4-0.1c-0.1,0-0.2,0-0.3-0.1c-0.1,0-0.2-0.2-0.2-0.3
		c0-0.2,0.1-0.4,0.2-0.5c0.3-0.2,0.7-0.3,1-0.3l2-0.5c0.4-0.1,0.8-0.2,1-0.2c0.2,0,0.4-0.1,0.6-0.1l0.7,0c0.5,0,1,0.1,1.5,0.2
		c0.6,0.2,1.2,0.3,1.8,0.6c0.7,0.3,1.3,0.6,1.8,1.1c0.6,0.5,1,1,1.4,1.7c0.4,0.8,0.6,1.6,0.5,2.4c0,0.9,0,1.6-0.1,2.3
		c0,0.6-0.2,1.2-0.3,1.8c-0.1,0.5-0.3,1-0.6,1.4c-0.2,0.4-0.5,0.9-0.9,1.3c-0.3,0.3-0.5,0.5-0.9,0.7c-0.4,0.2-0.8,0.4-1.2,0.6
		c-0.5,0.2-0.9,0.3-1.4,0.5c-0.5,0.1-0.9,0.3-1.3,0.4l-1.1,0.2c-0.2,0-0.4,0.1-0.6,0.1C266.7,543.4,266.5,543.4,266.4,543.3z
		 M266.2,538.8c0,0.6,0,1.2,0,1.7c-0.1,0.4,0,0.8,0.2,1.2c0.2,0.2,0.5,0.3,0.8,0.2c0.8,0,1.7-0.1,2.5-0.3c0.7-0.2,1.4-0.6,1.9-1.1
		c0.6-0.6,1-1.4,1.3-2.2c0.3-1.1,0.5-2.3,0.4-3.5c0-0.9-0.2-1.8-0.6-2.6c-0.4-0.7-0.9-1.2-1.5-1.7c-0.5-0.4-1.1-0.7-1.7-0.9
		c-0.4-0.1-0.8-0.2-1.2-0.3c-0.4,0-0.7,0.1-1.1,0.2c-0.3,0.1-0.6,0.2-0.9,0.4v7.1C266.2,537.6,266.2,538.2,266.2,538.8z"/>
	<path d="M336,535.4c0,0,0,0.1-0.2,0.2c-0.1,0.1-0.2,0.2-0.4,0.3c-0.1,0.1-0.3,0.2-0.4,0.3c-0.1,0.1-0.2,0.1-0.4,0.1
		c-0.9,0.1-1.7,0.1-2.4,0.1h-2c-0.1,1.6,0.4,3.2,1.4,4.5c1.2,1.1,2.7,1.7,4.3,1.5c0.3,0,0.6,0,0.9,0.1c0.2,0.1,0.2,0.3,0.2,0.4
		c0,0.1-0.1,0.3-0.4,0.4c-0.5,0.2-1,0.2-1.5,0.2c-0.9,0-1.9-0.1-2.8-0.3c-0.7-0.2-1.3-0.5-1.9-0.8c-0.5-0.3-0.9-0.7-1.2-1.2
		c-0.3-0.4-0.5-0.9-0.7-1.4c-0.2-0.5-0.3-1-0.3-1.5c0-0.5-0.1-1-0.1-1.5c0-1.4,0.1-2.8,0.5-4.2c0.3-1,0.8-1.9,1.4-2.7
		c0.5-0.7,1.2-1.2,2-1.5c0.8-0.3,1.6-0.4,2.4-0.4c0.6,0,1.1,0,1.6,0.2c0.3,0.1,0.4,0.3,0.4,0.6c0,0.3-0.2,0.5-0.4,0.5
		c0,0-0.1,0-0.1,0h-1.7c-0.5,0-0.9,0.1-1.3,0.2c-0.5,0.2-0.9,0.5-1.2,0.9c-0.4,0.6-0.7,1.2-0.9,1.9c-0.3,1-0.4,2-0.5,3.1
		c0.2-0.1,0.4-0.2,0.5-0.3c0.2-0.1,0.5-0.1,0.8-0.1h3.9C335.9,535.1,336,535.2,336,535.4z"/>
	<path d="M390.8,543.2c0,0.3-0.1,0.6-0.1,0.8c-0.1,0.3-0.1,0.5-0.2,0.7c-0.1,0.2-0.2,0.3-0.3,0.3c-0.1,0-0.2,0-0.3-0.1
		c-0.1,0-0.3-0.1-0.4-0.2l-0.3-0.2c-0.1-0.1-0.1-0.1-0.1-0.2c0-0.2,0-0.3,0-0.6c0-0.2,0-0.5,0.1-0.9c0.1-0.4,0-1,0-1.7
		c0-0.7,0-1.6,0-2.8c0-0.2,0-0.4-0.1-0.7c0-0.2-0.1-0.3-0.1-0.4c-0.1-0.1-0.1-0.3-0.1-0.4c0-0.1-0.1-0.3,0-0.4c0-0.3,0-0.5,0.1-0.7
		c0.1-0.2,0.1-0.5,0.1-0.8c0-0.1,0-0.3,0-0.6s0-0.6-0.1-1c0-0.4-0.1-0.7-0.1-1.1c0-0.4-0.1-0.7-0.1-0.9c-0.2-0.3-0.4-0.5-0.6-0.8
		c-0.1-0.2-0.2-0.5-0.2-0.7c0-0.1,0.1-0.3,0.2-0.4c0.1-0.2,0.3-0.3,0.5-0.5c0.2-0.1,0.4-0.3,0.6-0.4c0.2-0.1,0.3-0.2,0.5-0.2
		c0.3,0,0.6,0,0.8,0.1c0.4,0,0.9,0.1,1.3,0.1c0.6,0,1.3,0,2,0l2-0.1l1.7-0.1h1.1c0.1,0,0.1,0,0.2,0c0.1,0,0.1,0.1,0.1,0.2
		c0,0.1,0,0.2-0.1,0.2c0,0.1-0.1,0.2-0.2,0.3c-0.1,0.1-0.1,0.2-0.2,0.2c-0.1,0.1-0.2,0.1-0.3,0.1c-0.4,0.1-1,0.1-1.6,0.2l-1.9,0.2
		l-1.8,0.2c-0.6,0-1,0.1-1.3,0.1c-0.1,0-0.2,0.1-0.2,0.1c-0.1,0.2-0.1,0.3-0.1,0.5c-0.1,0.6-0.1,1.1-0.1,1.7c0,0.6,0,1.3,0,1.9
		c0,0.2,0,0.4,0,0.6c0,0.2,0,0.4,0,0.6h2.3c0.9,0,1.8,0,2.7-0.1c0.6-0.1,1.2-0.1,1.9-0.1c0.4,0,0.5,0.1,0.5,0.4
		c0,0.2-0.1,0.5-0.2,0.6c-0.1,0.1-0.3,0.2-0.5,0.2c-0.3,0-0.8,0-1.4,0.1l-2,0.1l-2,0.2l-1.4,0.2v5.2
		C390.8,542.8,390.9,543,390.8,543.2z"/>
	<path d="M460.2,537.9c0.3-0.1,0.6-0.1,0.8-0.1c0.1,0,0.2,0,0.3,0c0.1,0,0.1,0.1,0.2,0.3c0.1,0.2,0.1,0.4,0.1,0.6c0,0.3,0,0.7,0,1.2
		c0,0.9,0,1.8,0.1,2.7c0.1,0.6,0.1,1.2,0.1,1.8c0,0.2,0,0.4-0.2,0.5c-0.2,0.1-0.4,0.2-0.7,0.1c-0.1,0-0.2,0-0.3-0.1
		c-0.1-0.1-0.2-0.2-0.2-0.3c-0.1-0.2-0.2-0.4-0.2-0.6c-0.1-0.3-0.1-0.6-0.2-1c-0.1-0.4-0.5-0.7-0.9-0.6h-0.4l-0.7,0.1l-0.9,0.1
		c-0.3,0-0.6,0-0.9,0c-1.1,0-2.3-0.2-3.3-0.6c-0.8-0.4-1.5-0.9-2-1.6c-0.5-0.6-0.8-1.3-1.1-2c-0.2-0.6-0.3-1.2-0.3-1.8
		c0-1,0.2-2,0.5-3c0.4-1,1-1.9,1.7-2.7c0.9-0.8,1.9-1.5,3-1.9c1.4-0.5,2.8-0.8,4.3-0.7c0.9,0,1.7,0.1,2.5,0.3c0.6,0.2,0.9,0.5,0.9,1
		c0,0.1-0.1,0.3-0.2,0.4c-0.1,0.1-0.3,0.2-0.4,0.3c-0.2,0.1-0.3,0.2-0.5,0.2c-0.1,0-0.2,0.1-0.4,0.1c-0.2,0-0.3-0.1-0.4-0.1
		c-0.1-0.1-0.4-0.3-0.8-0.6c-0.2-0.1-0.3-0.2-0.5-0.3c-0.2,0-0.4-0.1-0.6-0.1c-0.9,0-1.9,0.3-2.7,0.7c-0.8,0.5-1.6,1.1-2.2,1.9
		c-0.6,0.7-1.1,1.6-1.5,2.5c-0.3,0.8-0.5,1.7-0.5,2.5c0,0.7,0.1,1.5,0.3,2.2c0.2,0.5,0.5,1,0.9,1.3c0.4,0.3,0.9,0.5,1.4,0.6
		c0.6,0.1,1.1,0.2,1.7,0.2c0.5,0,1-0.1,1.4-0.2c0.4-0.1,0.8-0.2,1.1-0.4c0.3-0.1,0.5-0.3,0.8-0.5c0.2-0.2,0.3-0.4,0.3-0.6l0.2-1.5
		C460,538.1,460,538,460.2,537.9z"/>
	<path d="M515.1,543.1c-0.2,0-0.3,0-0.4-0.1c-0.1-0.1-0.1-0.3-0.1-0.4c0-0.8,0-1.6,0.1-2.5c0.1-0.9,0.1-1.8,0.1-2.7V536
		c0-0.5,0-0.9,0-1.4s0-0.9,0-1.3s0-0.7,0-1c0-0.2-0.1-0.3-0.2-0.5c-0.1-0.1-0.3-0.2-0.4-0.3c-0.2-0.1-0.3-0.2-0.4-0.3
		c-0.1-0.1-0.2-0.2-0.2-0.3c0-0.1,0.1-0.2,0.1-0.2c0.1-0.1,0.2-0.2,0.3-0.3c0.1-0.1,0.3-0.2,0.5-0.3c0.2-0.1,0.4-0.1,0.6-0.1
		c0.2,0,0.4,0,0.6,0.1c0.2,0.1,0.5,0.1,0.7,0.2c0.2,0.1,0.4,0.2,0.5,0.3c0.1,0.1,0.2,0.2,0.2,0.2c0,0.2-0.1,0.4-0.2,0.6
		c-0.2,0.3-0.2,0.7-0.2,1c0,0.5,0,1.1,0,1.7s0,1.2-0.1,1.8h7.1c0-0.3,0-0.7,0-1s0-0.8,0-1.2c0-0.5,0-1-0.1-1.5c0-0.3-0.1-0.7-0.1-1
		c0-0.1,0.1-0.2,0.3-0.3c0.2-0.1,0.4-0.2,0.6-0.2c0.2-0.1,0.5-0.1,0.7-0.2c0.2,0,0.4-0.1,0.6-0.1c0.4,0,0.5,0.1,0.5,0.3
		c0,0.1,0,0.1-0.1,0.2c0,0.1-0.1,0.1-0.1,0.2c0,0.1-0.1,0.2-0.2,0.4c-0.1,0.2-0.2,0.4-0.2,0.6c0,0.3-0.1,0.6-0.1,0.9s-0.1,0.6-0.1,1
		c0,0.3,0,0.6,0,1c0,0.3,0,0.6,0,0.8h0.4h0.4c0.1,0,0.2,0,0.3,0c0.1,0,0.1,0.1,0.1,0.3c0,0.2-0.1,0.4-0.2,0.6
		c-0.1,0.2-0.3,0.3-0.5,0.3c-0.1,0-0.1,0-0.2,0c-0.1,0-0.2,0-0.2,0c-0.1,0-0.3,0.1-0.3,0.2c0,0,0,0,0,0.1v4.5c0,0.1,0,0.2-0.1,0.3
		c0,0.1-0.1,0.3-0.2,0.4c-0.1,0.1-0.2,0.2-0.3,0.3c-0.1,0.1-0.2,0.1-0.3,0.1c-0.2,0-0.4,0-0.5-0.1c-0.1-0.1-0.2-0.3-0.2-0.5
		l-0.3-5.4c-0.5,0-1.1,0-1.8,0l-2.1,0.1c-0.7,0-1.4,0.1-2,0.1c-0.4,0-0.9,0.1-1.3,0.2c-0.1,0.1-0.1,0.3-0.1,0.4c0,0.1,0,0.3,0,0.4
		v3.9C516.3,542.8,515.9,543.1,515.1,543.1z"/>
	<path d="M38.5,478.6c-0.7,0-1.4,0.1-2.1,0.2c-0.4,0-0.7,0.2-1.1,0.4c-0.2,0.1-0.3,0.3-0.4,0.5c-0.2,0.4-0.4,0.7-0.6,0.7
		c-0.2,0-0.3-0.1-0.3-0.3c-0.2-0.6-0.4-1.1-0.6-1.4l-0.4-0.8c-0.1-0.1-0.2-0.3-0.2-0.4c0-0.1-0.1-0.2-0.1-0.3c0-0.2,0-0.4,0.1-0.6
		c0.1-0.2,0.2-0.3,0.3-0.3c0.1,0,0.3,0,0.4,0.1c0.2,0,0.5,0.1,0.9,0.1c0.4,0,1,0.1,1.8,0.1c0.8,0.1,1.8,0.1,3.2,0.1
		c1.3,0,2.7,0,3.7,0s1.9-0.1,2.6-0.1c0.2,0,0.4,0,0.5-0.1c0.1-0.1,0.2-0.1,0.3-0.2l0.2-0.2c0.1-0.1,0.1-0.1,0.2-0.1
		c0.2,0,0.3,0.2,0.4,0.5c0.1,0.4,0.1,0.9,0.1,1.4c0,0.4,0,0.9-0.1,1.3c-0.1,0.2-0.2,0.3-0.3,0.3c-0.1,0-0.1,0-0.2-0.1
		c-0.1-0.1-0.3-0.2-0.4-0.3c-0.1-0.1-0.1-0.1-0.2-0.1c-0.2,0-0.4-0.1-0.6-0.1c-0.3,0-0.7,0-1.3-0.1h-2.2
		C40.7,478.5,39.5,478.5,38.5,478.6z"/>
	<path d="M45.3,424.8c-0.1-0.1-0.3-0.2-0.4-0.3l-0.6-0.7c-0.3-0.3-0.6-0.8-1-1.3c-0.7-1-1.5-1.9-2.3-2.7c-0.6-0.6-1.2-1.1-1.8-1.6
		c-0.5-0.3-0.9-0.6-1.5-0.7c-0.4-0.1-0.8-0.2-1.2-0.2c-0.6,0-1.2,0.3-1.6,0.7c-0.5,0.6-0.8,1.4-0.7,2.2c0,0.7,0.1,1.3,0.3,1.9
		c0.2,0.5,0.5,0.8,1,1c0.1,0.1,0.2,0.2,0.2,0.3c0.1,0.3,0.1,0.5,0.1,0.8c0,0.2-0.1,0.3-0.2,0.4c-0.2,0.1-0.3,0.2-0.5,0.3
		c-0.2,0.1-0.4,0.1-0.6,0.1h-0.4c-0.2,0-0.3-0.2-0.5-0.6c-0.2-0.4-0.3-0.9-0.4-1.4c-0.1-0.5-0.2-1-0.2-1.6c-0.1-0.4-0.1-0.8-0.1-1.2
		c0-0.3,0-0.6,0-0.9c0-0.3,0.1-0.5,0.1-0.8c0.1-0.3,0.2-0.6,0.3-0.8c0.2-0.3,0.3-0.7,0.5-1c0.3-0.5,0.7-1,1.2-1.3
		c0.5-0.3,1-0.4,1.6-0.4c0.3,0,0.6,0,0.9,0.1c0.4,0.1,0.7,0.2,1.1,0.4c0.4,0.2,0.8,0.4,1.1,0.7c0.4,0.3,0.8,0.7,1.1,1.1l4.6,5.7
		c0.1,0.1,0.2,0.2,0.2,0.2c0,0,0.1-0.1,0.1-0.2c0-1.2,0-2.3,0-3.4c0-1.1,0-2.3-0.1-3.4c0-0.4,0-0.8-0.1-1.2c0-0.3-0.1-0.5-0.2-0.7
		c0-0.1-0.1-0.3-0.2-0.4c-0.1-0.1-0.1-0.2-0.1-0.3c0-0.1,0-0.2,0.1-0.3c0.1-0.1,0.2-0.1,0.3-0.1c0.1,0,0.3,0,0.4,0
		c0.2,0,0.5,0.1,0.7,0.1c0.2,0.1,0.4,0.1,0.6,0.2c0.2,0.1,0.3,0.2,0.3,0.4c0,0.3-0.1,0.5-0.2,0.8c0,0.1-0.1,0.2-0.1,0.4
		s0,0.4-0.1,0.6c-0.1,0.3,0,0.6,0,1.1v1.7c0,1,0,1.8,0,2.4s0,1.1,0,1.4c0,0.3,0,0.5,0.1,0.8c0,0.2,0.1,0.3,0.1,0.4
		c0,0.1,0.1,0.2,0.1,0.3c0,0.1,0,0.2,0,0.3c0,0.2-0.1,0.3-0.2,0.4c-0.1,0.1-0.2,0.2-0.4,0.3h-1.4C45.5,424.8,45.4,424.8,45.3,424.8z
		"/>
	<path d="M39.7,358.2c0.3,0,0.6-0.3,1-0.8l1.2-1.6c0.2-0.2,0.4-0.4,0.6-0.6c0.2-0.1,0.5-0.2,0.8-0.2c0.6,0,1.2,0.2,1.6,0.6
		c0.6,0.6,1.2,1.3,1.7,2c0.2,0.3,0.4,0.7,0.5,1c0.2,0.5,0.5,1,0.7,1.5c0.2,0.5,0.4,1,0.6,1.5c0.1,0.3,0.2,0.7,0.3,1
		c0,0.3-0.1,0.6-0.2,0.8l-0.6,0.9c-0.1,0.2-0.3,0.3-0.4,0.3s-0.1-0.1-0.2-0.2c-0.1-0.3-0.1-0.6-0.1-0.8c-0.1-0.9-0.2-1.8-0.5-2.6
		c-0.2-0.7-0.5-1.3-0.8-1.9c-0.3-0.5-0.6-0.8-1.1-1.1c-0.3-0.2-0.7-0.4-1.1-0.4c-0.3,0-0.6,0.1-0.9,0.3c-0.4,0.4-0.8,0.8-1.1,1.3
		l-1.1,1.5c-0.2,0.3-0.4,0.5-0.6,0.5s-0.2-0.1-0.4-0.3c-0.2-0.2-0.6-0.7-1.2-1.3c-0.6-0.6-0.8-0.9-1.1-1.1l-0.7-0.6
		c-0.1-0.1-0.3-0.2-0.5-0.3c-0.1,0-0.2-0.1-0.3-0.1c-0.1,0-0.2,0.1-0.3,0.3c-0.1,0.3-0.2,0.5-0.3,0.8c-0.1,0.3-0.2,0.7-0.3,1.1
		c-0.1,0.4-0.1,0.7-0.2,1.1c-0.1,0.3-0.1,0.6-0.1,0.9c0,0.3,0,0.4,0,0.5c0,0.3,0,0.6,0.2,0.9c0.1,0.1,0.2,0.3,0.2,0.5
		c0,0.4-0.2,0.6-0.6,0.6c-0.2,0-0.3,0-0.4-0.1c-0.2,0-0.4-0.1-0.6-0.2c-0.2-0.1-0.4-0.2-0.5-0.3c-0.1-0.1-0.2-0.2-0.2-0.4
		c0-0.3,0-0.5,0.1-0.8c0.1-0.4,0.2-0.9,0.3-1.6c0.1-0.6,0.3-1.4,0.5-2.2c0.2-0.8,0.5-1.7,0.8-2.7c0.1-0.5,0.6-0.9,1.1-0.9
		c0.2,0,0.3,0,0.4,0.1c0.2,0.1,0.3,0.2,0.4,0.3l2.6,2.4C39,358,39.3,358.1,39.7,358.2z"/>
	<path d="M32.9,295.8c-0.1-0.3-0.2-0.6-0.2-0.9c0-0.2,0.2-0.4,0.5-0.4l0.9,0l2,0.1c0.8,0,1.7,0.1,2.7,0.1c1,0,2,0,3.1,0
		c0.3,0,0.7,0,1-0.1c0.1,0,0.2-0.2,0.2-0.3c0-0.5,0-1.1,0-1.6c0-0.5,0-1.1,0-1.7c0-0.2,0-0.4-0.1-0.6c-0.1-0.2-0.1-0.3-0.1-0.5
		c0-0.1,0-0.2,0.1-0.2c0.1,0,0.1-0.1,0.2-0.1l0.3,0.1c0.2,0.1,0.4,0.1,0.5,0.2c0.2,0.1,0.4,0.2,0.5,0.3c0.1,0.1,0.2,0.3,0.2,0.5
		c0,0.1,0,0.1,0,0.2c0,0.2-0.1,0.3-0.1,0.5c0,0.2,0,0.6-0.1,1c0,0.4,0,1,0,1.7v0.7c0.7,0,1.3,0,1.7-0.1l1-0.1l0.6-0.1H48
		c0.1,0,0.3,0.1,0.3,0.2c0.1,0.2,0.1,0.3,0.1,0.5c0,0.1,0,0.2,0,0.4c0,0.2-0.1,0.4-0.1,0.6c0,0.2-0.1,0.4-0.2,0.5
		c-0.1,0.1-0.2,0.2-0.3,0.2c-0.1,0-0.1,0-0.2-0.1c-0.1-0.1-0.2-0.1-0.3-0.1l-0.7-0.1l-0.7-0.1l-0.7-0.1h-0.6c-0.1,0-0.2,0-0.2,0.1
		c-0.1,0.2-0.1,0.4-0.1,0.6c0,0.6,0,1.3,0,2c0,0.7,0.1,1.4,0.1,2c0,0.6,0.1,1.2,0.1,1.7c0,0.5,0,0.8,0,0.9c0,0.1,0,0.2-0.1,0.3
		c-0.1,0.1-0.2,0.2-0.2,0.3c-0.1,0.1-0.2,0.2-0.3,0.3c-0.1,0.1-0.2,0.1-0.3,0.1c-0.1,0-0.2,0-0.2,0l-0.3-0.2
		c-0.2-0.1-0.4-0.3-0.5-0.4c-0.2-0.2-0.5-0.4-0.8-0.7l-8.2-7.1C33.2,296.5,33,296.2,32.9,295.8z M42.9,302c0.1-0.6,0.1-1.2,0.1-1.8
		c0-0.6,0-1.2,0-1.8s0-1.2,0-1.7l-1.3,0c-0.4,0-0.9,0-1.3,0h-2.1h-2.1c0.5,0.7,1.1,1.3,1.7,1.9c0.7,0.7,1.3,1.3,2,1.9
		c0.7,0.6,1.2,1.1,1.7,1.4c0.3,0.3,0.6,0.5,1,0.6C42.7,302.5,42.8,302.3,42.9,302L42.9,302z"/>
	<path d="M33.2,231c0-0.1,0-0.2,0-0.3c0-0.2,0.2-0.4,0.4-0.4c0.1,0,0.2,0.1,0.3,0.1c0.2,0.1,0.3,0.2,0.4,0.4
		c0.1,0.1,0.3,0.3,0.4,0.4c0.1,0.1,0.1,0.2,0.1,0.4c0,0.8,0,1.6,0,2.4s0,1.4,0,2.1c0,0.4,0,0.7,0,0.9c0,0.2,0,0.3-0.1,0.5
		c0,0.1,0,0.2-0.1,0.3c0,0.1,0,0.2,0,0.3c0,0.1,0.1,0.2,0.2,0.3c0.1,0.1,0.3,0.2,0.4,0.3c0.2,0.1,0.3,0.2,0.5,0.3
		c0.1,0.1,0.3,0.1,0.5,0.1c0.1,0,0.2-0.1,0.2-0.1c0.1-0.1,0.3-0.2,0.4-0.4c0.1-0.2,0.3-0.4,0.5-0.8c0.2-0.3,0.5-0.8,0.8-1.3l1-1.7
		c0.2-0.4,0.5-0.8,0.8-1.2c0.2-0.3,0.5-0.5,0.8-0.7c0.3-0.2,0.6-0.3,0.9-0.3c0.4-0.1,0.7-0.1,1.1-0.1c0.3,0,0.5,0,0.8,0.1
		c0.3,0.1,0.6,0.2,0.8,0.3c0.4,0.2,0.7,0.5,1,0.8c0.3,0.3,0.8,0.8,1.2,1.3c0.1,0.1,0.3,0.3,0.5,0.6c0.2,0.3,0.4,0.6,0.6,1
		c0.2,0.4,0.4,0.8,0.7,1.2c0.2,0.4,0.4,0.8,0.6,1.2c0.2,0.4,0.3,0.7,0.5,1.1c0.1,0.3,0.2,0.5,0.2,0.8c0,0.2-0.1,0.3-0.2,0.4
		c-0.3,0.1-0.6,0.2-0.9,0.1c-0.3,0-0.5,0-0.8-0.1c-0.1-0.2-0.2-0.4-0.2-0.6c0-0.4,0-0.8,0-1.1c0-0.3-0.1-0.6-0.1-0.8
		c-0.1-0.3-0.2-0.5-0.3-0.8c-0.6-1-1.3-1.9-2.2-2.6c-0.5-0.4-1.1-0.7-1.7-0.7c-0.3,0-0.7,0-1,0.1c-0.3,0.1-0.6,0.2-0.8,0.4
		c-0.3,0.3-0.6,0.6-0.8,1c-0.3,0.4-0.7,1-1.2,1.7l-1.8,2.6c-0.1,0.2-0.3,0.4-0.5,0.6c-0.1,0.1-0.2,0.1-0.3,0.1c-0.2,0-0.3,0-0.5-0.1
		c-0.3-0.1-0.5-0.2-0.8-0.3l-1.3-0.6c-0.4-0.2-0.8-0.4-1.1-0.6c-0.1-0.1-0.2-0.2-0.2-0.4c0-0.1,0-0.2,0-0.2c0-0.1,0.1-0.2,0.1-0.2
		c0.1-0.1,0.1-0.2,0.1-0.4c0-0.2,0-0.4,0-0.6v-6.1C33.2,231.2,33.2,231.1,33.2,231z"/>
	<path d="M39,179.9c-0.8-0.4-1.5-0.8-2.1-1.3c-0.7-0.6-1.4-1.2-2-1.8c-0.5-0.6-1.1-1.3-1.5-2c-0.4-0.5-0.8-1.1-1.1-1.7
		c-0.2-0.3-0.3-0.7-0.4-1.1c0-0.2,0-0.4,0-0.6s0-0.5,0.1-0.8c0-0.2,0.1-0.5,0.2-0.7c0.1-0.2,0.2-0.3,0.3-0.3s0.3,0.2,0.4,0.6
		c0.1,0.4,0.3,0.8,0.5,1.3c0.2,0.5,0.4,1.1,0.6,1.6c0.2,0.5,0.5,0.9,0.9,1.3c0.6,0.6,1.3,1.2,2,1.8c0.6,0.4,1.2,0.8,1.8,1.2
		c1.1,0.6,2.2,0.8,3.4,0.8c0.5,0,1-0.1,1.5-0.2c0.5-0.2,0.9-0.4,1.3-0.7c0.4-0.3,0.8-0.7,1-1.2c0.3-0.5,0.4-1.1,0.4-1.7
		c0-0.6-0.1-1.1-0.3-1.7c-0.1-0.4-0.4-0.8-0.7-1.1c-0.3-0.3-0.6-0.4-0.9-0.5c-0.3-0.1-0.7-0.2-1-0.2c-2.2,0-3.3,1.1-3.2,3.2
		c0,0.3,0,0.6,0.1,0.9c0.1,0.3,0.1,0.6,0.1,0.9c0,0.1,0,0.2-0.1,0.3c-0.1,0.1-0.2,0.2-0.3,0.2c-0.1,0-0.2-0.1-0.3-0.3
		c-0.1-0.2-0.3-0.4-0.4-0.7c-0.1-0.2-0.2-0.5-0.3-0.7c-0.1-0.2-0.1-0.4-0.1-0.6c0-0.9,0.1-1.9,0.5-2.8c0.2-0.6,0.6-1.2,1.1-1.6
		c0.4-0.4,0.9-0.6,1.5-0.7c0.5-0.1,1-0.2,1.4-0.2c0.6,0,1.1,0.2,1.6,0.5c0.5,0.3,1,0.8,1.4,1.3c0.4,0.5,0.7,1.1,0.9,1.8
		c0.2,0.6,0.3,1.3,0.3,2c0,0.8-0.1,1.6-0.3,2.3c-0.2,0.6-0.5,1.2-0.9,1.7c-0.4,0.4-0.8,0.8-1.3,1.1c-0.4,0.3-0.9,0.5-1.4,0.7
		c-0.4,0.2-0.9,0.3-1.3,0.3c-0.4,0.1-0.7,0.1-1.1,0.1C40.4,180.5,39.7,180.3,39,179.9z"/>
	<path d="M33.1,109.3c-0.1-0.3-0.1-0.5-0.1-0.8c0-0.1,0-0.2,0.1-0.3c0.1-0.1,0.2-0.2,0.3-0.3c0.1-0.1,0.2-0.1,0.3-0.2
		c0.1-0.1,0.2-0.1,0.3-0.1c0.1,0,0.3,0.1,0.4,0.2l0.5,0.4c0.4,0.3,0.8,0.7,1.5,1.1c0.6,0.4,1.3,0.9,2,1.3c0.7,0.5,1.5,0.9,2.3,1.3
		c0.8,0.4,1.6,0.8,2.3,1.2c0.7,0.3,1.4,0.6,2.1,0.9c0.5,0.2,1.1,0.3,1.6,0.3c0.1,0,0.2,0.1,0.3,0.2c0.1,0.1,0.1,0.3,0.2,0.4
		c0.1,0.3,0.1,0.5,0.2,0.8c0,0.1,0,0.2,0,0.4c0,0.2-0.1,0.4-0.1,0.6c-0.1,0.2-0.1,0.4-0.2,0.5c-0.1,0.2-0.2,0.2-0.3,0.2
		c-0.3,0-0.6-0.2-0.8-0.4c-0.5-0.4-1-0.8-1.5-1.1l-8.6-5.3l-0.8-0.5c-0.1-0.1-0.2-0.1-0.3-0.1c-0.1,0-0.1,0-0.1,0.1c0,0,0,0,0,0
		c0,0.2,0.1,0.4,0.1,0.5c0,0.1,0.1,0.2,0.1,0.3c0,0.1,0,0.4,0.1,0.7c0,0.3,0,0.8,0,1.3c0,0.5,0,1.3,0,2.1s0,1.7,0,2.3s0,1-0.1,1.5
		c0,0.1,0,0.2-0.1,0.3c-0.1,0.1-0.2,0.1-0.3,0.2c-0.1,0-0.2,0.1-0.3,0.1h-0.2c-0.1,0-0.2,0-0.3-0.1c-0.1,0-0.3-0.1-0.4-0.2
		c-0.1-0.1-0.3-0.1-0.4-0.2c-0.1-0.1-0.2-0.1-0.2-0.2c0-0.1,0-0.2,0.1-0.3c0.1-0.1,0.1-0.2,0.2-0.3c0.1-0.1,0.1-0.2,0.2-0.3
		c0.1-0.2,0.1-0.3,0.1-0.5v-7.3C33.2,109.9,33.2,109.6,33.1,109.3z"/>
	<path d="M39.2,55.8c-0.3,0.4-0.5,0.7-0.9,1c-0.2,0.2-0.5,0.4-0.7,0.5c-0.2,0.1-0.5,0.1-0.7,0.1c-0.4,0-0.8-0.1-1.2-0.4
		c-0.4-0.2-0.7-0.5-1-0.9c-0.3-0.3-0.5-0.6-0.7-0.9c-0.1-0.2-0.2-0.4-0.2-0.6c0-0.1,0-0.1,0-0.2c0-0.1,0.1-0.2,0.1-0.3
		c0-0.1,0.1-0.2,0.1-0.2c0-0.1,0.1-0.1,0.1-0.1c0.1,0,0.3,0,0.4,0c0.1,0,0.1,0.1,0.2,0.2c0.2,0.4,0.5,0.7,0.9,1
		c0.2,0.2,0.5,0.3,0.8,0.3c0.2,0,0.5,0,0.7,0c0.2-0.1,0.4-0.2,0.6-0.3c0.2-0.2,0.5-0.5,0.6-0.7c0.2-0.3,0.5-0.8,0.8-1.4
		c-0.6-0.8-1.2-1.5-2-2.1c-0.4-0.3-0.9-0.5-1.4-0.6c-0.3,0-0.7,0-1,0.1c-0.3,0.1-0.6,0.3-0.7,0.5c-0.2,0.3-0.3,0.6-0.3,0.9
		c-0.1,0.4-0.1,0.8-0.1,1.1c0,0.1,0,0.2-0.1,0.2c0,0-0.1,0.1-0.2,0.1c-0.2,0-0.3-0.1-0.4-0.2c-0.2-0.1-0.3-0.3-0.5-0.4
		c-0.2-0.3-0.3-0.6-0.3-0.9c0-0.5,0.1-1,0.3-1.4c0.2-0.4,0.5-0.8,0.8-1.1c0.3-0.3,0.7-0.6,1.1-0.8c0.3-0.2,0.7-0.3,1.1-0.3
		c0.7,0.1,1.4,0.4,1.9,0.9c0.9,0.8,1.7,1.7,2.3,2.7c0.4-0.7,0.7-1.3,1-1.8c0.3-0.4,0.6-0.8,0.9-1.2c0.3-0.3,0.6-0.5,1-0.6
		c0.4-0.1,0.9-0.2,1.3-0.2c0.5,0,1,0.2,1.4,0.4c0.5,0.3,0.9,0.7,1.2,1.2c0.4,0.5,0.7,1,0.9,1.6c0.2,0.6,0.3,1.2,0.3,1.9
		c0,0.2,0,0.4,0,0.7s0,0.7-0.1,1.1c-0.1,0.4-0.1,0.7-0.2,1.1c-0.1,0.3-0.2,0.6-0.4,0.9c-0.3,0.4-0.7,0.8-1.2,1
		c-0.4,0.3-0.8,0.4-1.3,0.4c-0.3,0-0.5-0.1-0.8-0.2c-0.3-0.1-0.6-0.3-0.8-0.4c-0.3-0.2-0.5-0.4-0.7-0.6c-0.2-0.2-0.4-0.4-0.5-0.6
		l-1.5-2.2C39.9,54.8,39.5,55.3,39.2,55.8z M45.3,55.7c0.3-0.2,0.5-0.5,0.7-0.7c0.2-0.3,0.3-0.7,0.4-1.1c0.1-0.4,0.1-0.8,0.1-1.2
		c0-0.4-0.1-0.7-0.2-1.1c-0.2-0.3-0.4-0.7-0.6-0.9c-0.3-0.3-0.6-0.5-0.9-0.7c-0.3-0.2-0.7-0.2-1-0.2c-0.3,0-0.7,0.1-0.9,0.3
		c-0.3,0.2-0.6,0.4-0.9,0.7c-0.3,0.3-0.5,0.7-0.7,1.1c-0.2,0.4-0.4,0.8-0.6,1.2c0.5,0.8,1.1,1.6,1.9,2.2c0.5,0.4,1.1,0.7,1.8,0.7
		C44.7,56,45,55.9,45.3,55.7L45.3,55.7z"/>
</g>
<g>
	<path d="M1107.2,458.7h-4.9c0-2.1,0-4.1,0-6.1c0.1-1.5-0.1-2.7-1.9-3.2c-1-0.3-1.9-1.3-3.1-2.1v11.3h-4.9c0-0.8-0.1-1.7-0.1-2.5
		c0-7.1-0.1-14.2,0-21.3c0-2-0.8-3.4-2.7-3.4c-1.9,0-2.7,1.4-2.7,3.4c0.1,7.1,0,14.2,0,21.3v2.6h-4.8c-0.1-0.9-0.1-1.8-0.1-2.7
		c0-7.4,0.1-14.8-0.1-22.3c0-1.3-0.6-2.6-1.6-3.4c-1.6-1-2.9,0.4-4,1.6c-0.6,0.8-1.5,1.3-2.5,1.5c1.1-3.1,2.8-5.7,5.8-7
		c0.8-0.3,2.3-0.5,2.8,0c1.7,1.5,3.1,0.8,4.7,0.1c3.2-1.4,6-0.3,8.2,2.2c4.6-2.9,6.1-3,10-0.7c3.7-3,7.9-2.5,11.4,1.5
		c6.6,7.6,3,18-7.1,20c-2,0.4-2.6,1.1-2.4,3.1C1107.3,454.5,1107.2,456.6,1107.2,458.7z M1107.2,445.7c1-0.2,1.4-0.3,1.9-0.4
		c7.1-1.1,7.1-8.4,3.8-12.2c-1-0.9-2.4-1.3-3.7-1.2c-0.7,0-1.9,1.3-1.9,2.1C1107.1,437.8,1107.2,441.6,1107.2,445.7L1107.2,445.7z
		 M1102.2,445.7c0-4.3,0.1-8.4-0.1-12.4c0-0.7-1.5-1.9-2.4-1.9c-0.8,0-2.3,1.2-2.4,1.9c-0.2,4.2-0.1,8.3-0.1,12.4H1102.2z"/>
	<path d="M996.1,459.8c-4.7-0.3-10.3-1.5-12.9-7.6c-1.7-4-1.1-8.2,0.1-12.3c0.6-2,1.4-3.9,2.2-5.8c1-2.7,0.3-5.1-1.9-6.3
		c-2.4-1.1-5.2-0.3-6.6,1.8c-0.2,0.3-0.3,0.7-0.5,0.8c-0.8,0.4-1.6,0.7-2.4,1c0-0.9-0.3-2,0.1-2.6c0.6-1.2,1.6-2.1,2.8-2.8
		c2.6-1.2,5.4-1.9,8.3-2.2c4.2-0.2,6.8,2.5,6.4,6.8c-0.3,3-1.6,5.9-2.5,8.8c-0.3,1-0.9,2-1.2,3c-1,3.3-1.2,6.6,1.4,9.4
		c2.6,2.7,6.2,3,9.8,2c6.7-1.9,9.5-7.9,6.8-14.3c-0.9-2.1-1.9-4.1-2.7-6.2c-2.2-6,0.8-12.6,6.8-14.9c0.5-0.2,1-0.3,1.5-0.4
		c4.3-1,9.3,1.7,10.9,6c1.6,3.9-0.2,8.3-4.1,10c-0.7,0.3-1.8,0.1-2.7,0.1c0.2-0.8,0.6-1.5,1.1-2.2c2.2-2.2,2.7-4.4,1.5-6.5
		c-1.3-2.1-3.9-3.2-6.3-2.5c-2.6,0.6-4.2,3.2-3.7,5.8c0.3,1.7,0.9,3.4,1.7,4.9c1.9,4,3.7,8,2.9,12.7
		C1011.4,454.9,1005.9,459.8,996.1,459.8z"/>
	<path d="M636.7,459.7c-0.5-2.9-0.9-5.9-1.5-8.8c-1.2-6.2-2.7-12.3-6.4-17.6c-0.6-1-1.4-1.8-2.4-2.5c-2.3-1.4-4.8-2-7.3-0.7
		c-2.5,1.3-3.1,3.6-3.1,6.1c0,1.5,0.3,2.9,0.7,4.3c1.2,3.5,3.2,4.7,7.7,5.1c-2.4,2.6-6.4,2.8-9,0.4c-0.1-0.1-0.1-0.1-0.2-0.2
		c-4.9-4.4-4.4-15.3,0.9-19.3c3.9-2.9,9.7-2.4,13.7,1.2c3.8,3.4,5.9,7.9,7,13.4c0.5-1.5,0.8-2.5,1.1-3.6c1.5-4.6,3.9-8.6,8.1-11.3
		c6.1-3.8,13.3-1,15.3,5.9c1,3.4,0.8,7.1-0.5,10.5c-2.3,5.5-8.9,6.3-11.4,3c5.6-0.7,8.2-3.4,8.3-8.8c0.1-3.6-1.2-6.2-3.7-7.1
		c-3.1-0.9-6.5,0.2-8.5,2.8c-1.7,2.3-3.1,4.8-4,7.6c-1.6,5.8-2.7,11.7-4,17.6c-0.1,0.6-0.2,1.3-0.3,1.9L636.7,459.7z"/>
	<path d="M726.8,445.9c-1.3-4.4-2.4-8.3-3.6-12.2c-0.2-1.3-0.6-2.5-1.1-3.7c-0.6-0.9-2.3-2.3-2.7-2.1c-1.2,0.8-2.1,1.9-2.8,3.1
		c-0.3,0.4,0,1.1,0,1.7c-2.5,0.2-3.8-0.9-3.6-3.3c0-2.4,1.4-4.5,3.6-5.4c2.1-1,4.7-0.6,6.4,1c2.7,2.5,3.6,5.9,4.5,9.3
		c0.6,2.4,1.4,4.8,2.5,7.1c0.7,1.8,2.7,2.7,4.5,2c0.8-0.3,1.5-1,1.9-1.8c1.2-2.5,1.8-5.3,2.8-7.9c1-2.8,2.2-5.4,3.7-8
		c1.4-2.2,3.9-2.7,6.3-1.9c2.3,0.6,3.9,2.6,4.2,4.9c0.4,2.6-0.6,3.9-3.6,4.2c0-0.6,0-1.2,0-1.8c0-1.7-1.2-3.1-2.9-3.4
		c-1.7-0.3-2.6,1.1-3,2.5c-0.9,3.1-1.6,6.3-2.6,9.4c-0.6,1.9-1.5,3.8-2.3,5.8c3.7,4.3,3.5,9.6-0.6,13.1c-3.4,2.9-8.5,2.6-11.6-0.6
		C723.5,454.7,723.5,449.3,726.8,445.9z M732.7,457.4c2.9,0.1,5.4-2.1,5.6-5c0.1-2.9-2.1-5.4-5-5.7c-2.9-0.1-5.4,2.2-5.6,5.1
		C727.5,454.7,729.7,457.2,732.7,457.4C732.6,457.4,732.6,457.4,732.7,457.4z"/>
	<path d="M804.2,419.9c9.5,7.3,18.5,7.3,27.7-0.1c-1.1,3.6-3.6,6.6-7,8.3c-1.3,0.5-2.1,1.8-1.8,3.2c0.1,4.4,0.2,8.7,0,13.1
		c0,1.8,0.4,2.9,2.1,3.7c3.3,1.5,5.3,4.3,6.9,8.2c-9.5-7.4-18.5-7.2-27.8,0.1c1.1-3.7,3.7-6.8,7.2-8.5c1.3-0.4,2-1.7,1.8-3
		c-0.1-4.4-0.1-8.9-0.1-13.3c0.2-1.4-0.6-2.8-2-3.3C808,426.7,805.8,424,804.2,419.9z M816,430v16.2h4.5V430H816z"/>
	<path d="M885.8,450.7c7,3.7,14.2,4.9,21.9,2.4c3.2-1,6.4-2.3,8.8-5.4c-0.4-0.1-0.8-0.1-1.2-0.2c-3.9,0-5.9-2-5.8-5.7
		c0.2-3.4,3.1-6,6.5-5.7c0,0,0.1,0,0.1,0c4.1,0.3,7.2,3.9,6.9,8c0,0.6-0.2,1.1-0.3,1.7c-1.3,4.8-4.6,7.8-8.8,10
		c-8.4,4.2-16.8,5.1-25-0.5c-1.5-1-2.5-2.6-3.7-4L885.8,450.7z M915.7,439.1c-1.9,0-3,1.2-3,2.7c0,1.5,1.2,2.7,2.6,2.7
		c0.1,0,0.2,0,0.4,0c1.5-0.1,2.7-1.4,2.6-2.9C918.2,440.3,917.1,439.2,915.7,439.1z"/>
	<path d="M920.7,433.1c-12.2-5-25.8-3.7-30.8,3.4c0.5,0.1,1,0.1,1.4,0.1c3.5,0.1,5.4,1.9,5.4,5.4c-0.1,2.9-2.3,5.4-5.2,5.9
		c-2.8,0.4-5.6-0.8-7.2-3.2c-2-2.8-1.4-5.8-0.1-8.7c1.6-3.2,4.2-5.9,7.5-7.4c7.6-3.9,15.4-5.3,23.4-1.2c1.6,0.9,3,2,4.3,3.3
		C919.9,431.5,920.4,432.3,920.7,433.1z M890.6,439.6c-1.5-0.1-2.7,1.1-2.7,2.5c0,0.1,0,0.2,0,0.4c0,1.8,1.2,2.6,2.8,2.7
		c1.5,0.1,2.7-1,2.8-2.5c0-0.2,0-0.3,0-0.5C893.3,440.3,892.1,439.8,890.6,439.6z"/>
</g>
<g>
	<path d="M727.8,337.2h-4.1c0-0.8-0.1-1.6-0.1-2.4c0-5.8,0-11.5,0-17.3c0-1.7-0.3-3.1-2.3-3.1c-1.9,0-2.3,1.4-2.2,3.1
		c0,5.7,0,11.4,0,17v2.5H715V329c0-4.2,0.1-8.4-0.1-12.6c0-1-0.7-2.7-1.4-2.8c-1-0.2-2.2,0.6-3.2,1.2c-0.7,0.5-1.3,1-1.9,1.6
		l-0.8-0.9c1.5-1.7,3.1-3.3,4.8-4.8c0.8-0.6,1.9-0.7,2.8-0.4c1.5,1.1,2.8,0.6,4.2,0c2.6-1.1,4.7-0.2,6.6,1.8c0.9-0.6,1.9-1,2.9-1.5
		c2.7-1,5.8,0.4,6.8,3.1c0.2,0.6,0.3,1.2,0.3,1.8c0,6.7,0,13.4,0,20.1c-0.1,0.3-0.1,0.6,0,0.9c0.5,1.1,1,2.3,1.5,3.4l3.3-1.7
		c0.6,0.7,1.1,1.5,1.5,2.3c0.2,0.5,0.2,1.1-0.1,1.6c-1.3,1.8-3.6,2.7-5.8,2.4c-2.1-0.4-3.7-2.1-4.1-4.2c-0.3-1.5-0.4-2.9-0.4-4.4
		c0-6.2,0-12.4,0-18.6c0-1.5-0.3-2.7-2-2.8c-1.8,0-2.2,1.2-2.2,2.8c0,5.7,0,11.4,0,17L727.8,337.2z"/>
	<path d="M884.5,323.6c4.8-3.5,9.9-7.1,15-10.9c0.8-0.6,1.2-1.7,2-2.9c-6.2,0.3-12.2,1.8-17.8-1.5c1.9-2.9,3.8-4.1,7.5-3.3
		c5.1,1.1,10.4,0.8,15.3-0.8c1.4-0.4,3.2,0.7,5.5,1.3l-11.7,13.6c4.2,1.1,8,2.6,10.7,5.8c2.7,3.1,4.1,7.2,3.9,11.4
		c-0.2,6.5-4.6,12-10.8,13.7c-6.3,1.6-12.5-0.8-15.7-5.9c-4.3-6.9-3.3-14.4,3.1-21.8L884.5,323.6z M910.6,334.9
		c-0.1-5.3-4.5-9.5-9.8-9.4c-5.1,0.1-9.2,4.1-9.4,9.2c-0.2,5.3,3.9,9.7,9.2,10c5.3,0.2,9.7-3.9,10-9.2
		C910.6,335.3,910.6,335.1,910.6,334.9z"/>
	<path d="M1070.8,308.1c6.7,2.3,11.2,6.8,13.2,13.6c1.1,3.9,1.1,3.9,5.6,3.5c1.5-8.2,5.8-14.3,14.1-17.2c-4,5-7,10.3-7.3,17.2
		l4.7,0.3v3.5l-4.4,0.2c-0.7,4.5,1.1,9.1,6.7,16.9c-5.7-0.4-10.9-6.6-13.9-16.8c-0.6,0-1.3-0.1-2-0.2c-2-0.3-2.9,0.4-3.3,2.6
		c-1.5,7.3-6.1,12-13.1,14.6c3.8-5,6.8-10.3,7-17l-5.2-0.2v-3.5l5.2-0.2C1077.8,318.5,1074.8,313.1,1070.8,308.1z"/>
	<path d="M797.3,346.4l-3.5-3.7l8.8-9.1l-4.7-5l3.3-3.2l4.6,5.4l19.3-18.5c-3.2,0-6,0-8.8,0c-3.4,0-3.4,0.1-5.9-3.4l22.2-1
		c-0.6,7.5-1.2,14.6-1.8,22c-2.2-1.3-3.6-2.7-3.3-5.3c0.4-2.9,0.5-5.8,0.9-9.6l-19.5,18.8l4.7,5.1l-3.1,2.6l-4.5-5.5L797.3,346.4z"
		/>
	<path d="M1019.2,330.6c-4.8-1.3-7.6,1.3-10.4,4.5c-3.2,3.6-6.4,3.4-9.7-0.3c-0.5-0.6-1-1.2-1.6-1.8c-2.7-2.5-5.2-2.4-7.6,0.3
		c-6.5,7.2-8.7,7.2-14.9-0.1c-1.9-2.2-4-3.1-6.9-2.3c-0.6,0.1-1.2,0.2-1.8,0.2c0.8-4.8,7.2-5.6,9.4-2.6c0.9,1.2,1.8,2.4,2.8,3.5
		c2.4,2.7,5,2.8,7.6,0.1c1.1-1.1,2-2.5,3.1-3.7c2.8-3,6.1-2.9,8.7,0.2c0.2,0.2,0.3,0.4,0.5,0.6c4.1,4.9,6.3,4.9,10.4,0.1
		c2.6-3,5.6-3.9,8.5-2.1c0.9,0.6,1.5,1.7,2.2,2.6L1019.2,330.6z"/>
	<path d="M1019.3,320.2c-5-1.4-7.7,1.4-10.5,4.5c-3.3,3.6-6.5,3.3-9.7-0.3c-0.5-0.5-0.9-1.1-1.4-1.6c-2.5-2.5-5.5-2.5-7.9,0.2
		c-6.4,7.1-8.6,7.1-14.9-0.2c-2.3-2.7-2.9-2.8-8.4-2.1c0.3-2.8,2.8-4.8,5.6-4.5c0.7,0.1,1.4,0.3,2.1,0.7c1.4,1.1,2.6,2.4,3.6,3.9
		c3,3.8,5.9,3.9,9,0.2c0.9-1.1,1.8-2.3,2.8-3.2c2.7-2.6,5.6-2.5,8.2,0.2c0.4,0.5,0.8,1,1.2,1.4c3.6,4.2,6,4.2,9.5,0.1
		c0.8-1,1.8-2,2.9-2.7c2.4-1.6,5.6-0.9,7.2,1.5C1018.9,318.8,1019.2,319.5,1019.3,320.2z"/>
	<path d="M642.1,331.1c-0.8-8.3-3.6-12.1-8.6-12.1c-5,0-7.4,3.5-8.3,11.9h-12v-3.1h7.3c0.8-2.2,1.7-4.4,2.8-6.5
		c2.6-4.2,7.5-6.4,12.4-5.5c5.2,0.8,9.2,4.8,10.2,10c0.2,1.5,0.8,2,2.2,1.9c1.9-0.1,3.8,0,5.7,0c2.9,0,3,0.2,2.3,3.3
		c-0.5,0-1,0.1-1.5,0.1L642.1,331.1z"/>
	<path d="M612.8,338.9v-3h43.1v3H612.8z"/>
</g>
<g>
	<circle class="st2" cx="643.6" cy="64.8" r="15.6"/>
	<circle class="st2" cx="1081.5" cy="64.8" r="15.6"/>
</g>
<g>
	<circle class="st2" cx="643.6" cy="166.9" r="15.6"/>
	<circle class="st2" cx="1081.5" cy="166.9" r="15.6"/>
</g>
<g id="p-5_00000129906505347584678670000017118512765349222051_">
	<path class="st3" d="M18.8,557.8h28.9c0.3,0,0-0.3,0,0v9.5c0,0.2,0.1,0.3,0.3,0.3h19.6c0.2,0,0.3-0.1,0.3-0.3v-9.5c0-0.3-0.3,0,0,0
		h19c0.3,0,0-0.3,0,0v9.5c0,0.2,0.1,0.3,0.3,0.3h19.6c0.2,0,0.3-0.1,0.3-0.3v-9.5c0-0.3-0.3,0,0,0h19c0.3,0,0-0.3,0,0v9.5
		c0,0.2,0.1,0.3,0.3,0.3h19.6c0.2,0,0.3-0.1,0.3-0.3v-9.5c0-0.3-0.3,0,0,0h19c0.3,0,0-0.3,0,0v9.5c0,0.2,0.1,0.3,0.3,0.3h19.6
		c0.2,0,0.3-0.1,0.3-0.3v-9.5c0-0.3-0.3,0,0,0h19c0.3,0,0-0.3,0,0v9.5c0,0.2,0.1,0.3,0.3,0.3h19.6c0.2,0,0.3-0.1,0.3-0.3v-9.5
		c0-0.3-0.3,0,0,0h19c0.3,0,0-0.3,0,0v9.5c0,0.2,0.1,0.3,0.3,0.3h19.6c0.2,0,0.3-0.1,0.3-0.3v-9.5c0-0.3-0.3,0,0,0h19
		c0.3,0,0-0.3,0,0v9.5c0,0.2,0.1,0.3,0.3,0.3h19.6c0.2,0,0.3-0.1,0.3-0.3v-9.5c0-0.3-0.3,0,0,0h19c0.3,0,0-0.3,0,0v9.5
		c0,0.2,0.1,0.3,0.3,0.3h19.6c0.2,0,0.3-0.1,0.3-0.3v-9.5c0-0.3-0.3,0,0,0h19c0.3,0,0-0.3,0,0v9.5c0,0.2,0.1,0.3,0.3,0.3h19.6
		c0.2,0,0.3-0.1,0.3-0.3v-9.5c0-0.3-0.3,0,0,0h19c0.3,0,0-0.3,0,0v9.5c0,0.2,0.1,0.3,0.3,0.3h19.6c0.2,0,0.3-0.1,0.3-0.3v-9.5
		c0-0.3-0.3,0,0,0h19c0.3,0,0-0.3,0,0v9.5c0,0.2,0.1,0.3,0.3,0.3h19.6c0.2,0,0.3-0.1,0.3-0.3v-9.5c0-0.3-0.3,0,0,0h19
		c0.3,0,0-0.3,0,0v9.5c0,0.2,0.1,0.3,0.3,0.3h19.6c0.2,0,0.3-0.1,0.3-0.3v-9.5c0-0.3-0.3,0,0,0h19c0.3,0,0-0.3,0,0v9.5
		c0,0.2,0.1,0.3,0.3,0.3H537c0.2,0,0.3-0.1,0.3-0.3v-9.5c0-0.3-0.3,0,0,0h28.9c0.2,0,0.3-0.1,0.3-0.3v-28.9c0-0.3-0.3,0,0,0h9.5
		c0.2,0,0.3-0.1,0.3-0.3v-19.6c0-0.2-0.1-0.3-0.3-0.3h-9.5c-0.3,0,0,0.3,0,0v-19c0-0.3-0.3,0,0,0h9.5c0.2,0,0.3-0.1,0.3-0.3v-19.6
		c0-0.2-0.1-0.3-0.3-0.3h-9.5c-0.3,0,0,0.3,0,0v-19c0-0.3-0.3,0,0,0h9.5c0.2,0,0.3-0.1,0.3-0.3v-19.6c0-0.2-0.1-0.3-0.3-0.3h-9.5
		c-0.3,0,0,0.3,0,0v-19c0-0.3-0.3,0,0,0h9.5c0.2,0,0.3-0.1,0.3-0.3v-19.6c0-0.2-0.1-0.3-0.3-0.3h-9.5c-0.3,0,0,0.3,0,0v-19
		c0-0.3-0.3,0,0,0h9.5c0.2,0,0.3-0.1,0.3-0.3v-19.6c0-0.2-0.1-0.3-0.3-0.3h-9.5c-0.3,0,0,0.3,0,0v-19c0-0.3-0.3,0,0,0h9.5
		c0.2,0,0.3-0.1,0.3-0.3v-19.6c0-0.2-0.1-0.3-0.3-0.3h-9.5c-0.3,0,0,0.3,0,0v-19c0-0.3-0.3,0,0,0h9.5c0.2,0,0.3-0.1,0.3-0.3v-19.6
		c0-0.2-0.1-0.3-0.3-0.3h-9.5c-0.3,0,0,0.3,0,0v-19c0-0.3-0.3,0,0,0h9.5c0.2,0,0.3-0.1,0.3-0.3V235c0-0.2-0.1-0.3-0.3-0.3h-9.5
		c-0.3,0,0,0.3,0,0v-19c0-0.3-0.3,0,0,0h9.5c0.2,0,0.3-0.1,0.3-0.3v-19.6c0-0.2-0.1-0.3-0.3-0.3h-9.5c-0.3,0,0,0.3,0,0v-19
		c0-0.3-0.3,0,0,0h9.5c0.2,0,0.3-0.1,0.3-0.3v-19.6c0-0.2-0.1-0.3-0.3-0.3h-9.5c-0.3,0,0,0.3,0,0v-19c0-0.3-0.3,0,0,0h9.5
		c0.2,0,0.3-0.1,0.3-0.3v-19.6c0-0.2-0.1-0.3-0.3-0.3h-9.5c-0.3,0,0,0.3,0,0v-19c0-0.3-0.3,0,0,0h9.5c0.2,0,0.3-0.1,0.3-0.3V78.5
		c0-0.2-0.1-0.3-0.3-0.3h-9.5c-0.3,0,0,0.3,0,0v-19c0-0.3-0.3,0,0,0h9.5c0.2,0,0.3-0.1,0.3-0.3V39.4c0-0.2-0.1-0.3-0.3-0.3h-9.5
		c-0.3,0,0,0.3,0,0V10.2c0-0.2-0.1-0.3-0.3-0.3h-28.9c-0.3,0,0,0.3,0,0V0.4c0-0.2-0.1-0.3-0.3-0.3h-19.6c-0.2,0-0.3,0.1-0.3,0.3v9.5
		c0,0.3,0.3,0,0,0h-19c-0.3,0,0,0.3,0,0V0.4c0-0.2-0.1-0.3-0.3-0.3h-19.6c-0.2,0-0.3,0.1-0.3,0.3v9.5c0,0.3,0.3,0,0,0h-19
		c-0.3,0,0,0.3,0,0V0.4c0-0.2-0.1-0.3-0.3-0.3h-19.6c-0.2,0-0.3,0.1-0.3,0.3v9.5c0,0.3,0.3,0,0,0h-19c-0.3,0,0,0.3,0,0V0.4
		c0-0.2-0.1-0.3-0.3-0.3h-19.6c-0.2,0-0.3,0.1-0.3,0.3v9.5c0,0.3,0.3,0,0,0h-19c-0.3,0,0,0.3,0,0V0.4c0-0.2-0.1-0.3-0.3-0.3H361
		c-0.2,0-0.3,0.1-0.3,0.3v9.5c0,0.3,0.3,0,0,0h-19c-0.3,0,0,0.3,0,0V0.4c0-0.2-0.1-0.3-0.3-0.3h-19.6c-0.2,0-0.3,0.1-0.3,0.3v9.5
		c0,0.3,0.3,0,0,0h-19c-0.3,0,0,0.3,0,0V0.4c0-0.2-0.1-0.3-0.3-0.3h-19.6c-0.2,0-0.3,0.1-0.3,0.3v9.5c0,0.3,0.3,0,0,0h-19
		c-0.3,0,0,0.3,0,0V0.4c0-0.2-0.1-0.3-0.3-0.3h-19.6c-0.2,0-0.3,0.1-0.3,0.3v9.5c0,0.3,0.3,0,0,0h-19c-0.3,0,0,0.3,0,0V0.4
		c0-0.2-0.1-0.3-0.3-0.3h-19.6c-0.2,0-0.3,0.1-0.3,0.3v9.5c0,0.3,0.3,0,0,0h-19c-0.3,0,0,0.3,0,0V0.4c0-0.2-0.1-0.3-0.3-0.3h-19.6
		c-0.2,0-0.3,0.1-0.3,0.3v9.5c0,0.3,0.3,0,0,0h-19c-0.3,0,0,0.3,0,0V0.4c0-0.2-0.1-0.3-0.3-0.3h-19.6c-0.2,0-0.3,0.1-0.3,0.3v9.5
		c0,0.3,0.3,0,0,0h-19c-0.3,0,0,0.3,0,0V0.4c0-0.2-0.1-0.3-0.3-0.3H87.1c-0.2,0-0.3,0.1-0.3,0.3v9.5c0,0.3,0.3,0,0,0h-19
		c-0.3,0,0,0.3,0,0V0.4c0-0.2-0.1-0.3-0.3-0.3H48c-0.2,0-0.3,0.1-0.3,0.3v9.5c0,0.3,0.3,0,0,0H18.8c-0.2,0-0.3,0.1-0.3,0.3v28.9
		c0,0.3,0.3,0,0,0H9.1c-0.2,0-0.3,0.1-0.3,0.3v19.6c0,0.2,0.1,0.3,0.3,0.3h9.5c0.3,0,0-0.3,0,0v19c0,0.3,0.3,0,0,0H9.1
		c-0.2,0-0.3,0.1-0.3,0.3v19.6c0,0.2,0.1,0.3,0.3,0.3h9.5c0.3,0,0-0.3,0,0v19c0,0.3,0.3,0,0,0H9.1c-0.2,0-0.3,0.1-0.3,0.3v19.6
		c0,0.2,0.1,0.3,0.3,0.3h9.5c0.3,0,0-0.3,0,0v19c0,0.3,0.3,0,0,0H9.1c-0.2,0-0.3,0.1-0.3,0.3v19.6c0,0.2,0.1,0.3,0.3,0.3h9.5
		c0.3,0,0-0.3,0,0v19c0,0.3,0.3,0,0,0H9.1c-0.2,0-0.3,0.1-0.3,0.3v19.6c0,0.2,0.1,0.3,0.3,0.3h9.5c0.3,0,0-0.3,0,0v19
		c0,0.3,0.3,0,0,0H9.1c-0.2,0-0.3,0.1-0.3,0.3v19.6c0,0.2,0.1,0.3,0.3,0.3h9.5c0.3,0,0-0.3,0,0v19c0,0.3,0.3,0,0,0H9.1
		c-0.2,0-0.3,0.1-0.3,0.3v19.6c0,0.2,0.1,0.3,0.3,0.3h9.5c0.3,0,0-0.3,0,0v19c0,0.3,0.3,0,0,0H9.1c-0.2,0-0.3,0.1-0.3,0.3v19.6
		c0,0.2,0.1,0.3,0.3,0.3h9.5c0.3,0,0-0.3,0,0v19c0,0.3,0.3,0,0,0H9.1c-0.2,0-0.3,0.1-0.3,0.3v19.6c0,0.2,0.1,0.3,0.3,0.3h9.5
		c0.3,0,0-0.3,0,0v19c0,0.3,0.3,0,0,0H9.1c-0.2,0-0.3,0.1-0.3,0.3V411c0,0.2,0.1,0.3,0.3,0.3h9.5c0.3,0,0-0.3,0,0v19
		c0,0.3,0.3,0,0,0H9.1c-0.2,0-0.3,0.1-0.3,0.3v19.6c0,0.2,0.1,0.3,0.3,0.3h9.5c0.3,0,0-0.3,0,0v19c0,0.3,0.3,0,0,0H9.1
		c-0.2,0-0.3,0.1-0.3,0.3v19.6c0,0.2,0.1,0.3,0.3,0.3h9.5c0.3,0,0-0.3,0,0v19c0,0.3,0.3,0,0,0H9.1c-0.2,0-0.3,0.1-0.3,0.3v19.6
		c0,0.2,0.1,0.3,0.3,0.3h9.5c0.3,0,0-0.3,0,0v28.9C18.6,557.7,18.7,557.8,18.8,557.8"/>
</g>
<g id="p-1_00000112616499280935897260000010718068415457954190_">
	<path class="st4" d="M1110.7,360.3C1110.7,360,1110.4,360.3,1110.7,360.3h28.9h9.8c0.2,0,0.3-0.1,0.3-0.3v-22.9
		c0-0.2-0.1-0.3-0.3-0.3h-9.5c-0.3,0,0,0.3,0,0v-19.1c0-0.3-0.3,0,0,0h9.5c0.2,0,0.3-0.1,0.3-0.3v-22.9v-9.8c0-0.2-0.1-0.3-0.3-0.3
		h-9.8h-29.1c-0.2,0-0.3,0.1-0.3,0.3v9.5c0,0.3,0.3,0,0,0h-19.1c-0.3,0,0,0.3,0,0v-9.5c0-0.2-0.1-0.3-0.3-0.3h-19.5
		c-0.2,0-0.3,0.1-0.3,0.3v9.5c0,0.3,0.3,0,0,0H1052c-0.3,0,0,0.3,0,0v-9.5c0-0.2-0.1-0.3-0.3-0.3h-19.5c-0.2,0-0.3,0.1-0.3,0.3v9.5
		c0,0.3,0.3,0,0,0h-19.1c-0.3,0,0,0.3,0,0v-9.5c0-0.2-0.1-0.3-0.3-0.3h-19.5c-0.2,0-0.3,0.1-0.3,0.3v9.5c0,0.3,0.3,0,0,0h-19.1
		c-0.3,0,0,0.3,0,0v-9.5c0-0.2-0.1-0.3-0.3-0.3H954c-0.2,0-0.3,0.1-0.3,0.3v9.5c0,0.3,0.3,0,0,0h-19.1c-0.3,0,0,0.3,0,0v-9.5
		c0-0.2-0.1-0.3-0.3-0.3h-19.5c-0.2,0-0.3,0.1-0.3,0.3v9.5c0,0.3,0.3,0,0,0h-19.1c-0.3,0,0,0.3,0,0v-9.5c0-0.2-0.1-0.3-0.3-0.3
		h-19.5c-0.2,0-0.3,0.1-0.3,0.3v9.5c0,0.3,0.3,0,0,0h-19.1c-0.3,0,0,0.3,0,0v-9.5c0-0.2-0.1-0.3-0.3-0.3h-19.5
		c-0.2,0-0.3,0.1-0.3,0.3v9.5c0,0.3,0.3,0,0,0h-19.1c-0.3,0,0,0.3,0,0v-9.5c0-0.2-0.1-0.3-0.3-0.3h-19.5c-0.2,0-0.3,0.1-0.3,0.3v9.5
		c0,0.3,0.3,0,0,0h-19.1c-0.3,0,0,0.3,0,0v-9.5c0-0.2-0.1-0.3-0.3-0.3h-19.5c-0.2,0-0.3,0.1-0.3,0.3v9.5c0,0.3,0.3,0,0,0H739
		c-0.3,0,0,0.3,0,0v-9.5c0-0.2-0.1-0.3-0.3-0.3h-19.5c-0.2,0-0.3,0.1-0.3,0.3v9.5c0,0.3,0.3,0,0,0h-19.1c-0.3,0,0,0.3,0,0v-9.5
		c0-0.2-0.1-0.3-0.3-0.3h-19.5c-0.2,0-0.3,0.1-0.3,0.3v9.5c0,0.3,0.3,0,0,0h-19.1c-0.3,0,0,0.3,0,0v-9.5c0-0.2-0.1-0.3-0.3-0.3H641
		c-0.2,0-0.3,0.1-0.3,0.3v9.5c0,0.3,0.3,0,0,0h-19.1c-0.3,0,0,0.3,0,0v-9.5c0-0.2-0.1-0.3-0.3-0.3h-29.1h-9.8
		c-0.2,0-0.3,0.1-0.3,0.3v9.8v22.9c0,0.2,0.1,0.3,0.3,0.3h9.5c0.3,0,0-0.3,0,0v19.1c0,0.3,0.3,0,0,0h-9.5c-0.2,0-0.3,0.1-0.3,0.3
		V360c0,0.2,0.1,0.3,0.3,0.3h9.8H1110.7z"/>
	<path class="st4" d="M592.2,360.3"/>
</g>
<g id="p-2_00000021109580415062337940000014380756496600779402_">
	<path class="st5" d="M1136.2,188.2c0.2,0,0.3-0.1,0.3-0.3v-22.7c0-0.3-0.3,0,0,0h9.5c0.2,0,0.3-0.1,0.3-0.3v-19.6
		c0-0.2-0.1-0.3-0.3-0.3h-9.5c-0.3,0,0,0.3,0,0v-22.7v-9.8c0-0.2-0.1-0.3-0.3-0.3h-29.1c-0.2,0-0.3,0.1-0.3,0.3v9.5c0,0.3,0.3,0,0,0
		h-19.1c-0.3,0,0,0.3,0,0v-9.5c0-0.2-0.1-0.3-0.3-0.3H1068c-0.2,0-0.3,0.1-0.3,0.3v9.5c0,0.3,0.3,0,0,0h-19.1c-0.3,0,0,0.3,0,0v-9.5
		c0-0.2-0.1-0.3-0.3-0.3h-19.5c-0.2,0-0.3,0.1-0.3,0.3v9.5c0,0.3,0.3,0,0,0h-19.1c-0.3,0,0,0.3,0,0v-9.5c0-0.2-0.1-0.3-0.3-0.3
		h-19.5c-0.2,0-0.3,0.1-0.3,0.3v9.5c0,0.3,0.3,0,0,0h-19.1c-0.3,0,0,0.3,0,0v-9.5c0-0.2-0.1-0.3-0.3-0.3h-19.5
		c-0.2,0-0.3,0.1-0.3,0.3v9.5c0,0.3,0.3,0,0,0h-19.1c-0.3,0,0,0.3,0,0v-9.5c0-0.2-0.1-0.3-0.3-0.3h-19.5c-0.2,0-0.3,0.1-0.3,0.3v9.5
		c0,0.3,0.3,0,0,0h-19.1c-0.3,0,0,0.3,0,0v-9.5c0-0.2-0.1-0.3-0.3-0.3h-19.5c-0.2,0-0.3,0.1-0.3,0.3v9.5c0,0.3,0.3,0,0,0H853
		c-0.3,0,0,0.3,0,0v-9.5c0-0.2-0.1-0.3-0.3-0.3h-19.5c-0.2,0-0.3,0.1-0.3,0.3v9.5c0,0.3,0.3,0,0,0h-19.1c-0.3,0,0,0.3,0,0v-9.5
		c0-0.2-0.1-0.3-0.3-0.3h-19.5c-0.2,0-0.3,0.1-0.3,0.3v9.5c0,0.3,0.3,0,0,0h-19.1c-0.3,0,0,0.3,0,0v-9.5c0-0.2-0.1-0.3-0.3-0.3H755
		c-0.2,0-0.3,0.1-0.3,0.3v9.5c0,0.3,0.3,0,0,0h-19.1c-0.3,0,0,0.3,0,0v-9.5c0-0.2-0.1-0.3-0.3-0.3h-19.5c-0.2,0-0.3,0.1-0.3,0.3v9.5
		c0,0.3,0.3,0,0,0h-19.1c-0.3,0,0,0.3,0,0v-9.5c0-0.2-0.1-0.3-0.3-0.3h-19.5c-0.2,0-0.3,0.1-0.3,0.3v9.5c0,0.3,0.3,0,0,0h-19.1
		c-0.3,0,0,0.3,0,0v-9.5c0-0.2-0.1-0.3-0.3-0.3h-19.5c-0.2,0-0.3,0.1-0.3,0.3v9.5c0,0.3,0.3,0,0,0h-19.1c-0.3,0,0,0.3,0,0v-9.5
		c0-0.2-0.1-0.3-0.3-0.3h-29.1c-0.2,0-0.3,0.1-0.3,0.3v9.8v22.7c0,0.3,0.3,0,0,0h-9.5c-0.2,0-0.3,0.1-0.3,0.3v19.6
		c0,0.2,0.1,0.3,0.3,0.3h9.5c0.3,0,0-0.3,0,0v22.7c0,0.2,0.1,0.3,0.3,0.3H1136.2z"/>
	<path class="st5" d="M588.9,188.2"/>
</g>
<g id="p-3_00000008141934411637197660000005632132734605741219_">
	<path class="st5" d="M588.9,86c0.2,0,547.7-0.1,547.7-0.3V63.1c0-0.3-0.3,0,0,0h9.5c0.2,0,0.3-0.1,0.3-0.3V43.2
		c0-0.2-0.1-0.3-0.3-0.3h-9.5c-0.3,0,0,0.3,0,0V20.3v-9.8c0-0.2-0.1-0.3-0.3-0.3h-29.1c-0.2,0-0.3,0.1-0.3,0.3V20c0,0.3,0.3,0,0,0
		h-19.1c-0.3,0,0,0.3,0,0v-9.5c0-0.2-0.1-0.3-0.3-0.3H1068c-0.2,0-0.3,0.1-0.3,0.3V20c0,0.3,0.3,0,0,0h-19.1c-0.3,0,0,0.3,0,0v-9.5
		c0-0.2-0.1-0.3-0.3-0.3h-19.5c-0.2,0-0.3,0.1-0.3,0.3V20c0,0.3,0.3,0,0,0h-19.1c-0.3,0,0,0.3,0,0v-9.5c0-0.2-0.1-0.3-0.3-0.3h-19.5
		c-0.2,0-0.3,0.1-0.3,0.3V20c0,0.3,0.3,0,0,0h-19.1c-0.3,0,0,0.3,0,0v-9.5c0-0.2-0.1-0.3-0.3-0.3h-19.5c-0.2,0-0.3,0.1-0.3,0.3V20
		c0,0.3,0.3,0,0,0h-19.1c-0.3,0,0,0.3,0,0v-9.5c0-0.2-0.1-0.3-0.3-0.3h-19.5c-0.2,0-0.3,0.1-0.3,0.3V20c0,0.3,0.3,0,0,0h-19.1
		c-0.3,0,0,0.3,0,0v-9.5c0-0.2-0.1-0.3-0.3-0.3h-19.5c-0.2,0-0.3,0.1-0.3,0.3V20c0,0.3,0.3,0,0,0H853c-0.3,0,0,0.3,0,0v-9.5
		c0-0.2-0.1-0.3-0.3-0.3h-19.5c-0.2,0-0.3,0.1-0.3,0.3V20c0,0.3,0.3,0,0,0h-19.1c-0.3,0,0,0.3,0,0v-9.5c0-0.2-0.1-0.3-0.3-0.3h-19.5
		c-0.2,0-0.3,0.1-0.3,0.3V20c0,0.3,0.3,0,0,0h-19.1c-0.3,0,0,0.3,0,0v-9.5c0-0.2-0.1-0.3-0.3-0.3H755c-0.2,0-0.3,0.1-0.3,0.3V20
		c0,0.3,0.3,0,0,0h-19.1c-0.3,0,0,0.3,0,0v-9.5c0-0.2-0.1-0.3-0.3-0.3h-19.5c-0.2,0-0.3,0.1-0.3,0.3V20c0,0.3,0.3,0,0,0h-19.1
		c-0.3,0,0,0.3,0,0v-9.5c0-0.2-0.1-0.3-0.3-0.3h-19.5c-0.2,0-0.3,0.1-0.3,0.3V20c0,0.3,0.3,0,0,0h-19.1c-0.3,0,0,0.3,0,0v-9.5
		c0-0.2-0.1-0.3-0.3-0.3h-19.5c-0.2,0-0.3,0.1-0.3,0.3V20c0,0.3,0.3,0,0,0h-19.1c-0.3,0,0,0.3,0,0v-9.5c0-0.2-0.1-0.3-0.3-0.3h-29.1
		c-0.2,0-0.3,0.1-0.3,0.3v9.8V43c0,0.3,0.3,0,0,0h-9.5c-0.2,0-0.3,0.1-0.3,0.3v19.6c0,0.2,0.1,0.3,0.3,0.3h9.5c0.3,0,0-0.3,0,0v22.7
		C588.6,85.9,588.7,86,588.9,86"/>
</g>
<g id="p-4_00000062894996832904986240000003030199602833121703_">
	<path class="st4" d="M1110.7,472.3C1110.7,472,1110.4,472.3,1110.7,472.3h28.9h9.8c0.2,0,0.3-0.1,0.3-0.3v-22.9
		c0-0.2-0.1-0.3-0.3-0.3h-9.5c-0.3,0,0,0.3,0,0v-19.1c0-0.3-0.3,0,0,0h9.5c0.2,0,0.3-0.1,0.3-0.3v-22.9v-9.8c0-0.2-0.1-0.3-0.3-0.3
		h-9.8h-29.1c-0.2,0-0.3,0.1-0.3,0.3v9.5c0,0.3,0.3,0,0,0h-19.1c-0.3,0,0,0.3,0,0v-9.5c0-0.2-0.1-0.3-0.3-0.3h-19.5
		c-0.2,0-0.3,0.1-0.3,0.3v9.5c0,0.3,0.3,0,0,0H1052c-0.3,0,0,0.3,0,0v-9.5c0-0.2-0.1-0.3-0.3-0.3h-19.5c-0.2,0-0.3,0.1-0.3,0.3v9.5
		c0,0.3,0.3,0,0,0h-19.1c-0.3,0,0,0.3,0,0v-9.5c0-0.2-0.1-0.3-0.3-0.3h-19.5c-0.2,0-0.3,0.1-0.3,0.3v9.5c0,0.3,0.3,0,0,0h-19.1
		c-0.3,0,0,0.3,0,0v-9.5c0-0.2-0.1-0.3-0.3-0.3H954c-0.2,0-0.3,0.1-0.3,0.3v9.5c0,0.3,0.3,0,0,0h-19.1c-0.3,0,0,0.3,0,0v-9.5
		c0-0.2-0.1-0.3-0.3-0.3h-19.5c-0.2,0-0.3,0.1-0.3,0.3v9.5c0,0.3,0.3,0,0,0h-19.1c-0.3,0,0,0.3,0,0v-9.5c0-0.2-0.1-0.3-0.3-0.3
		h-19.5c-0.2,0-0.3,0.1-0.3,0.3v9.5c0,0.3,0.3,0,0,0h-19.1c-0.3,0,0,0.3,0,0v-9.5c0-0.2-0.1-0.3-0.3-0.3h-19.5
		c-0.2,0-0.3,0.1-0.3,0.3v9.5c0,0.3,0.3,0,0,0h-19.1c-0.3,0,0,0.3,0,0v-9.5c0-0.2-0.1-0.3-0.3-0.3h-19.5c-0.2,0-0.3,0.1-0.3,0.3v9.5
		c0,0.3,0.3,0,0,0h-19.1c-0.3,0,0,0.3,0,0v-9.5c0-0.2-0.1-0.3-0.3-0.3h-19.5c-0.2,0-0.3,0.1-0.3,0.3v9.5c0,0.3,0.3,0,0,0H739
		c-0.3,0,0,0.3,0,0v-9.5c0-0.2-0.1-0.3-0.3-0.3h-19.5c-0.2,0-0.3,0.1-0.3,0.3v9.5c0,0.3,0.3,0,0,0h-19.1c-0.3,0,0,0.3,0,0v-9.5
		c0-0.2-0.1-0.3-0.3-0.3h-19.5c-0.2,0-0.3,0.1-0.3,0.3v9.5c0,0.3,0.3,0,0,0h-19.1c-0.3,0,0,0.3,0,0v-9.5c0-0.2-0.1-0.3-0.3-0.3H641
		c-0.2,0-0.3,0.1-0.3,0.3v9.5c0,0.3,0.3,0,0,0h-19.1c-0.3,0,0,0.3,0,0v-9.5c0-0.2-0.1-0.3-0.3-0.3h-29.1h-9.8
		c-0.2,0-0.3,0.1-0.3,0.3v9.8v22.9c0,0.2,0.1,0.3,0.3,0.3h9.5c0.3,0,0-0.3,0,0v19.1c0,0.3,0.3,0,0,0h-9.5c-0.2,0-0.3,0.1-0.3,0.3
		V472c0,0.2,0.1,0.3,0.3,0.3h9.8H1110.7z"/>
</g>
</svg>
