<?xml version="1.0" encoding="utf-8"?>
<!-- Generator: Adobe Illustrator 25.4.1, SVG Export Plug-In . SVG Version: 6.00 Build 0)  -->
<svg version="1.1"
	 id="Layer_1" xmlns:cc="http://creativecommons.org/ns#" xmlns:dc="http://purl.org/dc/elements/1.1/" xmlns:inkscape="http://www.inkscape.org/namespaces/inkscape" xmlns:rdf="http://www.w3.org/1999/02/22-rdf-syntax-ns#" xmlns:svg="http://www.w3.org/2000/svg"
	 xmlns="http://www.w3.org/2000/svg" xmlns:xlink="http://www.w3.org/1999/xlink" x="0px" y="0px" viewBox="0 0 1417.6 492.9"
	 style="enable-background:new 0 0 1417.6 492.9;" xml:space="preserve">
<style type="text/css">
	.st0{fill:none;stroke:#000000;stroke-width:0.5669;stroke-linecap:round;stroke-linejoin:round;stroke-miterlimit:11.3386;}
</style>
<g id="p-1">
	<path class="st0" d="M80.5,421.7h23.7h23.7h23.7h23.7c7.5,0,14.9-2,21.4-5.7c6.5-3.8,11.9-9.2,15.7-15.7c3.8-6.5,5.7-13.9,5.7-21.4
		v-24.1c0-0.3-0.3,0,0,0h9.1c0.2,0,0.3-0.1,0.3-0.3v-18.7c0-0.2-0.1-0.3-0.3-0.3H218c-0.3,0,0,0.3,0,0v-18.1c0-0.3-0.3,0,0,0h9.1
		c0.2,0,0.3-0.1,0.3-0.3v-18.7c0-0.2-0.1-0.3-0.3-0.3H218c-0.3,0,0,0.3,0,0v-18.1c0-0.3-0.3,0,0,0h9.1c0.2,0,0.3-0.1,0.3-0.3v-18.7
		c0-0.2-0.1-0.3-0.3-0.3H218c-0.3,0,0,0.3,0,0v-18.1c0-0.3-0.3,0,0,0h9.1c0.2,0,0.3-0.1,0.3-0.3v-18.7c0-0.2-0.1-0.3-0.3-0.3H218
		c-0.3,0,0,0.3,0,0v-24.1c0-7.5-2-14.9-5.7-21.4c-3.8-6.5-9.2-11.9-15.7-15.7c-6.5-3.8-13.9-5.7-21.4-5.7h-19c-0.3,0,0,0.3,0,0v-9.1
		c0-0.2-0.1-0.3-0.3-0.3h-18.7c-0.2,0-0.3,0.1-0.3,0.3v9.1c0,0.3,0.3,0,0,0h-18.1c-0.3,0,0,0.3,0,0v-9.1c0-0.2-0.1-0.3-0.3-0.3H99.8
		c-0.2,0-0.3,0.1-0.3,0.3v9.1c0,0.3,0.3,0,0,0h-19c-7.5,0-14.9,2-21.4,5.7s-11.9,9.2-15.7,15.7c-3.8,6.5-5.7,13.9-5.7,21.4v24.1
		c0,0.3,0.3,0,0,0h-9.1c-0.2,0-0.3,0.1-0.3,0.3v18.7c0,0.2,0.1,0.3,0.3,0.3h9.1c0.3,0,0-0.3,0,0v18.1c0,0.3,0.3,0,0,0h-9.1
		c-0.2,0-0.3,0.1-0.3,0.3v18.7c0,0.2,0.1,0.3,0.3,0.3h9.1c0.3,0,0-0.3,0,0v18.1c0,0.3,0.3,0,0,0h-9.1c-0.2,0-0.3,0.1-0.3,0.3v18.7
		c0,0.2,0.1,0.3,0.3,0.3h9.1c0.3,0,0-0.3,0,0v18.1c0,0.3,0.3,0,0,0h-9.1c-0.2,0-0.3,0.1-0.3,0.3v18.7c0,0.2,0.1,0.3,0.3,0.3h9.1
		c0.3,0,0-0.3,0,0v24.1c0,7.5,2,14.9,5.7,21.4c3.8,6.5,9.2,11.9,15.7,15.7S73,421.7,80.5,421.7"/>
</g>
<g id="p-2">
	<path class="st0" d="M284.2,402.7h94.7c4.2,0,8.4-1.1,12-3.2c3.7-2.1,6.7-5.2,8.8-8.8c2.1-3.7,3.2-7.8,3.2-12V198.9
		c0-4.2-1.1-8.4-3.2-12c-2.1-3.7-5.2-6.7-8.8-8.8c-3.7-2.1-7.8-3.2-12-3.2h-94.7c-4.2,0-8.4,1.1-12,3.2c-3.7,2.1-6.7,5.2-8.8,8.8
		c-2.1,3.7-3.2,7.8-3.2,12v179.7c0,4.2,1.1,8.4,3.2,12c2.1,3.7,5.2,6.7,8.8,8.8C275.8,401.5,279.9,402.7,284.2,402.7z M284.2,421.7
		h23.7h23.7h23.7h23.7c7.5,0,14.9-2,21.4-5.7c6.5-3.8,11.9-9.2,15.7-15.7c3.8-6.5,5.7-13.9,5.7-21.4v-24.1c0-0.3-0.3,0,0,0h9.1
		c0.2,0,0.3-0.1,0.3-0.3v-18.7c0-0.2-0.1-0.3-0.3-0.3h-9.1c-0.3,0,0,0.3,0,0v-18.1c0-0.3-0.3,0,0,0h9.1c0.2,0,0.3-0.1,0.3-0.3v-18.7
		c0-0.2-0.1-0.3-0.3-0.3h-9.1c-0.3,0,0,0.3,0,0v-18.1c0-0.3-0.3,0,0,0h9.1c0.2,0,0.3-0.1,0.3-0.3v-18.7c0-0.2-0.1-0.3-0.3-0.3h-9.1
		c-0.3,0,0,0.3,0,0v-18.1c0-0.3-0.3,0,0,0h9.1c0.2,0,0.3-0.1,0.3-0.3v-18.7c0-0.2-0.1-0.3-0.3-0.3h-9.1c-0.3,0,0,0.3,0,0v-24.1
		c0-7.5-2-14.9-5.7-21.4c-3.8-6.5-9.2-11.9-15.7-15.7c-6.5-3.8-13.9-5.7-21.4-5.7h-19c-0.3,0,0,0.3,0,0v-9.1c0-0.2-0.1-0.3-0.3-0.3
		h-18.7c-0.2,0-0.3,0.1-0.3,0.3v9.1c0,0.3,0.3,0,0,0h-18.1c-0.3,0,0,0.3,0,0v-9.1c0-0.2-0.1-0.3-0.3-0.3h-18.7
		c-0.2,0-0.3,0.1-0.3,0.3v9.1c0,0.3,0.3,0,0,0h-19c-7.5,0-14.9,2-21.4,5.7c-6.5,3.8-11.9,9.2-15.7,15.7c-3.8,6.5-5.7,13.9-5.7,21.4
		v24.1c0,0.3,0.3,0,0,0h-9.1c-0.2,0-0.3,0.1-0.3,0.3v18.7c0,0.2,0.1,0.3,0.3,0.3h9.1c0.3,0,0-0.3,0,0v18.1c0,0.3,0.3,0,0,0h-9.1
		c-0.2,0-0.3,0.1-0.3,0.3v18.7c0,0.2,0.1,0.3,0.3,0.3h9.1c0.3,0,0-0.3,0,0v18.1c0,0.3,0.3,0,0,0h-9.1c-0.2,0-0.3,0.1-0.3,0.3v18.7
		c0,0.2,0.1,0.3,0.3,0.3h9.1c0.3,0,0-0.3,0,0v18.1c0,0.3,0.3,0,0,0h-9.1c-0.2,0-0.3,0.1-0.3,0.3v18.7c0,0.2,0.1,0.3,0.3,0.3h9.1
		c0.3,0,0-0.3,0,0v24.1c0,7.5,2,14.9,5.7,21.4c3.8,6.5,9.2,11.9,15.7,15.7C269.3,419.7,276.7,421.7,284.2,421.7"/>
</g>
<g id="p-3">
	<path class="st0" d="M487.8,431h47.3h47.3c9.2,0,18.2-2.4,26.1-7c7.9-4.6,14.5-11.2,19.1-19.1c4.6-7.9,7-16.9,7-26.1V199.1
		c0-9.2-2.4-18.2-7-26.1c-4.6-7.9-11.2-14.5-19.1-19.1c-7.9-4.6-16.9-7-26.1-7h-94.7c-9.2,0-18.2,2.4-26.1,7
		c-7.9,4.6-14.5,11.2-19.1,19.1c-4.6,7.9-7,16.9-7,26.1v179.7c0,9.2,2.4,18.2,7,26.1c4.6,7.9,11.2,14.5,19.1,19.1
		C469.7,428.6,478.7,431,487.8,431"/>
</g>
<g id="p-4">
	<path class="st0" d="M28.6,142.3h23.7H76h64h24.4c0.2,0,0.3-0.1,0.3-0.3v-9.1c0-0.3-0.3,0,0,0h18.1c0.3,0,0-0.3,0,0v9.1
		c0,0.2,0.1,0.3,0.3,0.3h18.7c0.2,0,0.3-0.1,0.3-0.3v-9.1c0-0.3-0.3,0,0,0h18.1c0.3,0,0-0.3,0,0v9.1c0,0.2,0.1,0.3,0.3,0.3h18.7
		c0.2,0,0.3-0.1,0.3-0.3v-9.1c0-0.3-0.3,0,0,0h18.1c0.3,0,0-0.3,0,0v9.1c0,0.2,0.1,0.3,0.3,0.3h18.7c0.2,0,0.3-0.1,0.3-0.3v-9.1
		c0-0.3-0.3,0,0,0h18.1c0.3,0,0-0.3,0,0v9.1c0,0.2,0.1,0.3,0.3,0.3h24.4h64H403c0.2,0,0.3-0.1,0.3-0.3v-9.1c0-0.3-0.3,0,0,0h18.1
		c0.3,0,0-0.3,0,0v9.1c0,0.2,0.1,0.3,0.3,0.3h18.7c0.2,0,0.3-0.1,0.3-0.3v-9.1c0-0.3-0.3,0,0,0h18.1c0.3,0,0-0.3,0,0v9.1
		c0,0.2,0.1,0.3,0.3,0.3h19.3h64h24.4c0.2,0,0.3-0.1,0.3-0.3v-9.1c0-0.3-0.3,0,0,0h18.1c0.3,0,0-0.3,0,0v9.1c0,0.2,0.1,0.3,0.3,0.3
		h18.7c0.2,0,0.3-0.1,0.3-0.3v-9.1c0-0.3-0.3,0,0,0h18.1c0.3,0,0-0.3,0,0v9.1c0,0.2,0.1,0.3,0.3,0.3h18.7c0.2,0,0.3-0.1,0.3-0.3
		v-9.1c0-0.3-0.3,0,0,0h18.1c0.3,0,0-0.3,0,0v9.1c0,0.2,0.1,0.3,0.3,0.3h18.7c0.2,0,0.3-0.1,0.3-0.3v-9.1c0-0.3-0.3,0,0,0h18.1
		c0.3,0,0-0.3,0,0v9.1c0,0.2,0.1,0.3,0.3,0.3h24.4h64h23.7h23.7c0.2,0,0.3-0.1,0.3-0.3v-9.4V96.1c0-0.3,0.1-0.6,0.3-0.9
		c0.2-0.3,0.5-0.5,0.8-0.6c0.3-0.1,0.6-0.1,1,0c0.3,0.1,0.6,0.3,0.8,0.5l7.4,8.8c0.3,0.3,0.7,0.6,1.1,0.7c0.4,0.1,0.9,0.1,1.3-0.1
		c0.4-0.2,0.8-0.4,1-0.8c0.3-0.4,0.4-0.8,0.4-1.2V68.1c0-0.4-0.1-0.9-0.4-1.2c-0.3-0.4-0.6-0.6-1-0.8c-0.4-0.2-0.9-0.2-1.3-0.1
		c-0.4,0.1-0.8,0.4-1.1,0.7l-7.4,8.8c-0.2,0.2-0.5,0.4-0.8,0.5s-0.6,0.1-1,0c-0.3-0.1-0.6-0.3-0.8-0.6c-0.2-0.3-0.3-0.6-0.3-0.9V38
		v-9.4c0-0.2-0.1-0.3-0.3-0.3h-23.7h-23.7h-64h-24.4c-0.2,0-0.3,0.1-0.3,0.3v9.1c0,0.3,0.3,0,0,0h-18.1c-0.3,0,0,0.3,0,0v-9.1
		c0-0.2-0.1-0.3-0.3-0.3h-18.7c-0.2,0-0.3,0.1-0.3,0.3v9.1c0,0.3,0.3,0,0,0H642c-0.3,0,0,0.3,0,0v-9.1c0-0.2-0.1-0.3-0.3-0.3H623
		c-0.2,0-0.3,0.1-0.3,0.3v9.1c0,0.3,0.3,0,0,0h-18.1c-0.3,0,0,0.3,0,0v-9.1c0-0.2-0.1-0.3-0.3-0.3h-18.7c-0.2,0-0.3,0.1-0.3,0.3v9.1
		c0,0.3,0.3,0,0,0h-18.1c-0.3,0,0,0.3,0,0v-9.1c0-0.2-0.1-0.3-0.3-0.3h-24.4h-64h-19.3c-0.2,0-0.3,0.1-0.3,0.3v9.1c0,0.3,0.3,0,0,0
		h-18.1c-0.3,0,0,0.3,0,0v-9.1c0-0.2-0.1-0.3-0.3-0.3h-18.7c-0.2,0-0.3,0.1-0.3,0.3v9.1c0,0.3,0.3,0,0,0h-18.1c-0.3,0,0,0.3,0,0
		v-9.1c0-0.2-0.1-0.3-0.3-0.3h-19.3h-64h-24.4c-0.2,0-0.3,0.1-0.3,0.3v9.1c0,0.3,0.3,0,0,0h-18.1c-0.3,0,0,0.3,0,0v-9.1
		c0-0.2-0.1-0.3-0.3-0.3h-18.7c-0.2,0-0.3,0.1-0.3,0.3v9.1c0,0.3,0.3,0,0,0h-18.1c-0.3,0,0,0.3,0,0v-9.1c0-0.2-0.1-0.3-0.3-0.3
		h-18.7c-0.2,0-0.3,0.1-0.3,0.3v9.1c0,0.3,0.3,0,0,0h-18.1c-0.3,0,0,0.3,0,0v-9.1c0-0.2-0.1-0.3-0.3-0.3h-18.7
		c-0.2,0-0.3,0.1-0.3,0.3v9.1c0,0.3,0.3,0,0,0h-18.1c-0.3,0,0,0.3,0,0v-9.1c0-0.2-0.1-0.3-0.3-0.3H140H76H52.3H28.6
		c-0.2,0-0.3,0.1-0.3,0.3V38v36.5c0,0.4,0.1,0.9,0.4,1.2c0.3,0.4,0.6,0.6,1,0.8c0.4,0.2,0.9,0.2,1.3,0.1c0.4-0.1,0.8-0.4,1.1-0.7
		l7.4-8.8c0.2-0.2,0.5-0.4,0.8-0.5c0.3-0.1,0.6-0.1,1,0c0.3,0.1,0.6,0.3,0.8,0.6c0.2,0.3,0.3,0.6,0.3,0.9v34.5
		c0,0.3-0.1,0.6-0.3,0.9c-0.2,0.3-0.5,0.5-0.8,0.6c-0.3,0.1-0.6,0.1-1,0c-0.3-0.1-0.6-0.3-0.8-0.5l-7.4-8.8
		c-0.3-0.3-0.7-0.6-1.1-0.7c-0.4-0.1-0.9-0.1-1.3,0.1c-0.4,0.2-0.8,0.4-1,0.8c-0.3,0.4-0.4,0.8-0.4,1.2v36.5v9.4
		C28.3,142.2,28.5,142.3,28.6,142.3"/>
	<path class="st0" d="M82.3,142.3V90 M82.3,80.6V28.3 M86.9,37.7v95.2 M91.6,142.3V90 M91.6,80.6V28.3 M96.3,37.7v95.2 M101,142.3
		V90 M101,80.6V28.3 M105.6,37.7v95.2 M110.3,142.3V90 M110.3,80.6V28.3 M115,37.7v95.2 M119.7,142.3V90 M119.7,80.6V28.3
		 M124.4,37.7v95.2 M129,142.3V90 M129,80.6V28.3 M133.7,37.7v95.2"/>
	<path class="st0" d="M326,142.3V90 M326,80.6V28.3 M330.7,37.7v95.2 M335.4,142.3V90 M335.4,80.6V28.3 M340,37.7v95.2 M344.7,142.3
		V90 M344.7,80.6V28.3 M349.4,37.7v95.2 M354.1,142.3V90 M354.1,80.6V28.3 M358.7,37.7v95.2 M363.4,142.3V90 M363.4,80.6V28.3
		 M368.1,37.7v95.2 M372.8,142.3V90 M372.8,80.6V28.3 M377.5,37.7v95.2"/>
	<path class="st0" d="M484.7,142.3V90 M484.7,80.6V28.3 M489.4,37.7v95.2 M494.1,142.3V90 M494.1,80.6V28.3 M498.8,37.7v95.2
		 M503.4,142.3V90 M503.4,80.6V28.3 M508.1,37.7v95.2 M512.8,142.3V90 M512.8,80.6V28.3 M517.5,37.7v95.2 M522.1,142.3V90
		 M522.1,80.6V28.3 M526.8,37.7v95.2 M531.5,142.3V90 M531.5,80.6V28.3 M536.2,37.7v95.2"/>
	<path class="st0" d="M728.5,142.3V90 M728.5,80.6V28.3 M733.1,37.7v95.2 M737.8,142.3V90 M737.8,80.6V28.3 M742.5,37.7v95.2
		 M747.2,142.3V90 M747.2,80.6V28.3 M751.9,37.7v95.2 M756.5,142.3V90 M756.5,80.6V28.3 M761.2,37.7v95.2 M765.9,142.3V90
		 M765.9,80.6V28.3 M770.6,37.7v95.2 M775.2,142.3V90 M775.2,80.6V28.3 M779.9,37.7v95.2"/>
</g>
<g>
	<path d="M512.3,215.2h-4.2v-21.5h4.2v6.8h44.1v-6.8h4.2v21.5h-4.2v-6.2h-19.3v26.2h19.3V229h4.2v21.5h-4.2v-6.8h-44.1v6.8h-4.2V229
		h4.2v6.2h20.6v-26.2h-20.6V215.2z"/>
	<path d="M536.8,295.9l19.6,16.4v-6.1h4.2v18.5h-4.2v-5.9l-20-17.8l-24.1,21.2v4.7h-4.2v-12.1L533,295v-4h-20.7v6.2h-4.2v-21.5h4.2
		v6.8h44.1v-6.8h4.2v21.5h-4.2V291h-19.6V295.9z"/>
	<path d="M556.4,349.7h4.2V373h-4.2v-8.1h-44.1v20l1.6,1.5h10.4v5.4h-16.2v-42.1h4.2v6.8h44.1V349.7z"/>
</g>
</svg>
